<svg version="1.1" id="Layer_1" xmlns="http://www.w3.org/2000/svg" xmlns:xlink="http://www.w3.org/1999/xlink" x="0px" y="0px"
	 viewBox="0 0 512 278" style="enable-background:new 0 0 512 278;" xml:space="preserve">
<style type="text/css">
	.st0{fill:#FFFFFF;stroke:#000000;stroke-width:0.3;}
	.st1{fill:#4769FF;stroke:#FFFFFF;}
	.st2{fill:#000074;stroke:#FFFFFF;}
	.st3{fill:#0010C0;stroke:#FFFFFF;}
	.st4{fill:#AABDEF;stroke:#FFFFFF;}
	.st5{fill:#00023A;stroke:#FFFFFF;}
	.st6{fill:#656565;}
</style>

<rect y="0" class="st0" width="512" height="278"/>
<path class="st1" d="M49.4,236.3l0.1-4l-2.2-1.3l-0.3-3.1l2.3-1.8l1-2.5l-0.1-2.2l-0.6-2.5l0.3-1.2l1.3-2.5l-0.4-2.2l0.6-1.9
	l1.8-2.7l1.4-2.8l0.5-2.7l-0.4-2.6l-1-2.7l-0.9-3.1l0-0.1v-1.4l0.9-1.2l1.7-0.4l0.5-1.3l-0.5-2.2l1.5-2.8l-0.6-2.1l-2.8-0.8
	l-1.7,2.2l-2.5-0.4l-1.4,1.6l-0.3-3.7l-1.4-1.2l2.2-1.4l-0.4-2.5l-1-1.4l-1.9-0.6v-1.9h-1l-1.8,1.3l-0.6-0.9v-2.2l-2.1-1.4l-0.8-1.9
	l-3,1.4l-1.4-1.8l-1.6,1.3l-2.6-1.6l0.1-2.5l-1.2-1.4l-2.8,0.1l-1.2,2.7l-1.6,2.8l-7,0.4l-2.8-0.3l-0.9,3l0.6,1.3l1.9,2.3l3.6,1.2
	l-0.8,3.1l1.9,2.3v2.2l-2.2,0.8l-1.8,0.3l-1.7,3.9l-1.9,2.3l-1.8,3.1l2.3,2.2l-0.9,1.4l1.8,2.1l-0.3,3.6l1.2,1.2l1.8,2.2l0.4,1.7
	l0.1,2.5l-1.3,3.5l2.3,0.4l2.2-0.5l5.2,2.6h2.1l2.5,1.4l2.8,0.1l1.7,2.6l-1,1.9v1.2l0.1,2.6l1.6,0.3L37,230l2.8-0.3l1.3,1h1.4
	l2.8,2.5l0.1,1.2l2.1,0.1l1.8,1.3"/>
<path class="st2" d="M187.5,145.7l-2.3,1.8l-2.7,1.5l1.7,4.1l0.3,4.5l-2.8,0.6l-7.4-0.9l-0.9,0.6l-1.7-0.6l-9.7,2.6l-0.5,2.1
	l-4.3-0.8l-6.8,0.6L148,161l-3,2.6v3.5l-1.8,2.1l-4.3,0.5l-3.9-0.9l-3.4,4.1l1.5,0.4l-0.4,1.9l-3.7-0.1l-3,2.7l-0.4,1.5l-1.9,1.5
	l-2.2-0.4l1.4-2.3l-1.3-1l-1.8,0.4l-2.7,0.8l-3.1,3.4l-3.7-0.4l-2.8,0.8l-3-1.7l1.3-1.8l-4.5-5.8l-2.7,0.3l-0.8-1.4l2.8-1.9
	l-2.3-2.1l-4.5,1.8h-2.6l-0.5-1.7l-2.6,0.1l-1.8-2.2l-3.6,0.1l-2.1-1.2l-2.1,1.9l-0.1,1.5H75l-2.7-1.8l0.5-1.7l-0.1-1.2l-3.5,1
	l1.7,2.1l-1.3,1.9l0.9,1.7l-0.8,1.5L72,173l0.6,5l-2.8,3.5l-0.3,1.9l-1.3-0.1l-1.8,1.9l0.6,0.9l-3.7,4.8h-1.8l-1.8,1.8l-2.8,1.2
	l-1.9-0.4l-2,0.6l0,0.1l0.9,3.1l1,2.8l0.4,2.6l-0.5,2.7l-1.4,2.8l-1.8,2.7l-0.6,1.9l0.4,2.2l-1.3,2.5l-0.3,1.2l0.6,2.5l0.1,2.2
	l-1,2.5l-2.3,1.8l0.3,3.1l2.2,1.3l-0.1,3.7l3,0l2.3-1.8l2.7-0.8l0.1-2.6l0.8-2.7l3.5,0.6l1-0.4l-0.4-1.5l1.5-1.3l1.4-3.9l1,0.1
	l1.2-0.4l3,1.9L71,225l3.4,2.7l-1.5,4l0.4,1.4l2.6,1.8l4.4,0.3l3.9-1.9l3.6,0.1l1.9,1.9l3,0.8l0.4,1.5l-1.8,2.3l1.7,0.4l1.9-0.9
	l1.3,1.5l2.8,0.3l1.9,1.3l4.9-1.2l4,0.9l0.8-2.8l2.5-2.2v-3.7l1.7-1.7l-0.4-3.4l5.2-6.1l4.8-0.4l5-1.7l3,0.5l1.7,1.2l2.6-0.6
	l2.8-3.7h1.5l2.2,1.9l4.9-2.1l6.6,1.9l1.4,1.4h2.5l0.3-1.7l3.9-0.4l7.6-4.4l7.5-1.9l2.1-2.3l1.4-0.3v-2.7L181,204l-1-1.2l-1.9-0.8
	l-0.3-3l-0.1-3.7l0.9-1.7l-0.8-3.1l1.7-0.9l3.6,0.3l2.8-1.5l3.7-1.7l2.3-2.1l1.4-0.5l3.2,2.2l5.9-2.3l-0.1-1.9l3.5-3.4h2.6l1.7-0.8
	l1.4-1.9l0.6-2.2l0.5-2.2l1.2-1.5l1.8-3l-1-1.4l-1.3-1.5v-1.9l-0.3-2.8l-2.3-1l-2.1-1.3l-0.7-2.7l-1.6-0.5l-1.9,1.4l-4-3.4l-1.3-2.8
	l-4.4,1.2l-2.6-0.8l-4.5,1.5l-1-2.5l1.4-1.9L187.5,145.7L187.5,145.7z M208.1,154.3L208.1,154.3l-0.1-0.2L208.1,154.3z M181.2,209.8
	l3.4-0.7l1.6-0.3l1.6,1.3l-1.6-1.3l-2.4,0.5L181.2,209.8z M187.8,210l0.5,0.4l-2.3,4.5l-4.1,1v4.8l1.9,2.8l0.3,1.9l3.9,2.5l2.7-0.3
	l0.9,0.9l2.2,4l-1,5l2.6,1c0,0,2.1-0.3,2.6-0.1c0,0,0,0,0,0c0,0,0,0,0,0c0.5,0.4,1.6,5.3,1.6,5.3l2.8,1.7l9,4.1l3.1,0.4l3.4-0.1
	l0.5,0.5l0.4-1.3c0,0,1-2.3,1.7-2.7c0.6-0.4,0.9-3.2,0.9-3.2l0.1-3.4l2.2,0.1l2.7,0.1l2.5-1.4l2.8-1.7l2.1,1.8l2.2,0.3l-0.5-3
	l-1.9-1.9l-2.1-2.8l-2.3-1.9l-1.9-2.2l-0.3-2.8l-1-2.8l-2.5-0.4l-0.9-2.2L221,217l0.6-2.5l1.3-3.5l-4-1.2l-4.1-0.9l-0.8-3.1l-1-1.2
	l-3.1-2.2h-2.5l-1.7-0.4l-1.9-1.2l-2.3,2.1l-2.3-0.5l-3,0.8l-0.8,2.2l-0.9,1.5l-3,2.1L187.8,210L187.8,210L187.8,210z M49.4,235.9
	h-0.1l0.1,0.3C49.4,236.2,49.4,235.9,49.4,235.9z"/>
<path class="st2" d="M213.9,205.9l1.3-1l0.4-1.9l3.2,1.5l1.8,1.2l2.1,1.3l3.1,0.4l3.7,0.5h2.6l2.8,1.5l2.8,1.6l2.8,1.7l3.1-0.6h2.3
	l2.7,0.3l3.1-1.2l1.9-0.4l0.5-1.8l1.3-2.6l2.8-0.8l2.1,0.8l2.3,1.3l2.8,0.3l2.8,0.1h2.1l2.7,0.9l1.3,0.5l3.1-0.1h2.3l1.4,0.9
	l1.6,1.6l1.7,1.4l2.1,0.9l2.8,2.1l1.5-0.6l1.4-1.6l-0.1-2.1l1-1.9l1-2.1l1.3-1.8l-0.5-3.2l0.6-1.8l2.8-1.9l0.8-1.2l-0.1-1.7
	l-2.5-0.6l-1-0.6l-1.7-3.5l-1.3-2.6l-1.4-2.3l-1.7-3.5l-1.8,0.1l-0.4,1.4l-0.5,0.9l-2.8-0.8l-1.2,1l-0.8,0.8l-3-1.8l-2.1-1.4l-1-0.5
	l-1.6-5.2l-1.4-3.6l-0.8-2.8l0.9-3.9l0.3-0.8l-2.3-1.6l-2.1-1.7l-2.7-1.7l-0.1-2.2l0.8-2.3l1.2-2.1l-0.3-2.1l-0.9-0.9l1.3-4l1.2-3.6
	l-0.3-1.7l-0.9-0.4l-2.2-0.3l-2.6-1.5l-1.5-1.3v-0.5h5.6l0.8-0.8l-0.1-1.2l-3.4-1.6l-4.6-0.4l-2.2,0.1H255l-1.3-2.5l-1.5-4.9l-1-4
	l0.9-3.1l3.2,0.1l1.7,0.1v-1.7l-1-1.6l-2.6-0.5l-2.6,0.4l-1.7,1.6l-4.3,0.1l-4.4-0.6l-2.8-2.6l-1.3-1.3l-2.5,0.1l-2.1,0.6l-1.4,0.1
	l-0.5,1.3l-0.8,2.2l-3.8,1l-0.1-0.2l0.9,1.2l0.9,1l2.1,0.8l3,4.4l3.2,5.2l-2.3,4.9l-1.9,2.2l0.1,2.8l-1.3,2.7l0.9,1.3h4.4l1.9-1.7
	l2.8,2.8l1,2.6l1.5,2.8l-1.7,1.8l-0.1,3.4h-1.3l-0.5,1.3l1.2,1.3l-1.2,1.7l-0.1,1.4c0,0,0.8,1.6,1.4,1.6c0.6,0-0.3,2.2-0.3,2.2
	l-1.7,0.6l-0.9,2.1l-1.4-1.8l-1.8,1.2l-4.9-3l-0.1-1.2l-3.1-2.7h-2.1l-1.7-3.5l0.9-2.8l1.7-0.3l-0.9-1.8l-3.2-1.6l0.1-2.1l-2.2-1.2
	l-1.3,0.4l-2.7-0.1l-2.1,1l-2.2-0.1c0,0-1.2,2.9-2.2,3.7l-0.1-0.3l0.8,3l2.1,1.3l2.3,1l0.3,2.8v1.9l1.3,1.6l1,1.4l-1.8,3l-1.2,1.6
	l-0.5,2.2l-0.6,2.2l-1.4,1.9l-1.7,0.8h-2.6l-3.5,3.4l0.1,1.9l-5.9,2.3l-3.2-2.2l-1.4,0.5l-2.3,2.1l-3.7,1.7L183,190l-3.6-0.3
	l-1.7,0.9l0.8,3.1l-0.9,1.7l0.1,3.7l0.3,3l1.9,0.8l1,1.2l0.1,3.1v2.8l0-0.2l1.8-0.4l3.2-0.7l1.5,1.2l0.1,0.1l3.6-0.9l3-2.1l0.9-1.5
	l0.8-2.2l3-0.8l2.3,0.5l2.3-2.1l1.9,1.2l1.7,0.4h2.5l3.1,2.2L213.9,205.9"/>
<path class="st1" d="M214.1,205.8l1.3-1l0.4-1.9l3.2,1.5l1.8,1.2l2.1,1.3l3.1,0.4l3.7,0.5h2.6l2.8,1.6l2.8,1.6l2.8,1.7l3.1-0.6h2.3
	l2.7,0.3l3.1-1.2l1.9-0.4l0.5-1.8l1.3-2.6l2.8-0.8l2.1,0.8l2.3,1.3l2.8,0.3l2.8,0.1h2.1l2.7,0.9l1.3,0.5l3.1-0.1h2.3l1.4,0.9
	l1.6,1.6l1.7,1.4l2.1,0.9l2.8,2.1l0.4-0.1l1.7,2.7l1.8,1.3l1.4,0.6l2.8-1.3l0.8-1.8l2.1-1.8l1.8-0.9l0.9-1.7l0.9-1.8l1.5-1.4
	l1.9-0.8l2.1-1.3l2.1-1l1.5-0.8l1.7-0.3h0.9l1.2-0.4l1.2-0.3l0.8,1.3l0.9,1.5l1.7,0.4l1.8-0.1l2.6-0.3l0.8-0.3l1,2.5l0.9,0.5h1.7
	l1.7-0.9l1.3-1.2l1.3-0.9h1l1.2-0.4l3.2-0.1l1.2-0.6h1.2l1.5,0.4h1.2l1.5-0.5h1.4l1.9-0.1l1.8-0.3l1.4-0.1h1.7l1.3-0.4l2.3-0.9
	l1.6-0.5l1.5,1.6l2.1,1l1.3,1.6l1.4,2.3l1.4,1.9l1.9,2.5l1,1.6l0.1,2.3l-1.2,2.1l-0.5,1.7l0.4,2.1l0.8,1.4l0.9,1l0.8,2.3v3.1l0.4,3
	l0.3,1l1.7,0.6l2.2,1.8l1.8,1l-0.5,0.4l-4.5,1l-1.4,2.8l-0.8,1.3l-2.6-2.7l-1.5,2.2l-3.7,0.4l-2.8,10.2l-5.3,1.2l-1.4,3.5l-1.7,0.3
	l-1.2,1.9l-4.9,1.4v3.4l-1.2,1.9l-3.7-3.5l-1.2,1.2l-1.8-0.8l-1.5-1l-1.5-1.7l-4.8,1l-2.6,0.9l-1.8-0.9l-4.1,0.6l-4.4,0.6l-2.8-4.1
	l-4.3-0.5l-3.9,0.3l-4.8-3.2l-4.4,0.1l-3.1,1.8l-5.7-0.5l-6.7-2.5l-2.2,1.3l-2.1-1.9l-2.1,0.5l-1.9-1.5l-3.6,1.2l-2.3-1.6l-5.7,2.2
	l-5.2,0.3l-5.6-2.8l-5.9-0.4l-7.1-0.4l-6.6,0.1l-5.6-3l-1.3-0.6l-4,0.1l-2.7-0.2l0.4,0.2l0.4-1.3c0,0,1-2.3,1.7-2.7
	c0.6-0.4,0.9-3.2,0.9-3.2l0.1-3.4l2.2,0.1l2.7,0.1l2.5-1.4l2.8-1.7l2.1,1.8l2.2,0.3l-0.5-3l-1.9-1.9l-2.1-2.8l-2.3-1.9l-1.9-2.2
	l-0.3-2.8l-1-2.8l-2.5-0.4l-0.9-2.2l-1.6-1.9l0.6-2.5l1.3-3.5l-4-1.2l-4.1-0.9L214.1,205.8"/>
<path class="st3" d="M344.8,134.4l0.6,1.1l1.4,1.2l1.5-1.3l3.6,0.1l1.4,0.3l1,0.5l2.1,1.8c0,0,0.9,0.1,1.7,0.3
	c0.8,0.1,1.7-0.6,1.7-0.6l1.3-3l1.5-0.4l2.3-0.3l1.6,0.9l1.3-0.4l2.2-1.2l2.5-1l2.7-0.6l1-3l0.8-0.5l1.3-1.4l1.7,0.4l2.1-0.5
	l1.2-1.2l1.3-0.3c0,0,1.2,0,2.1,0c0.9,0,2.6,2.5,2.6,2.5l1.6,1.9c0,0,2.3,0.3,2.8,0.3c0.5,0,2.6,0.8,2.6,0.8l1.8,2.2l2.7-0.4h2.8
	l1.2,2.6l1.5,0.3l2.1,0.3h2.3l1.2,3.2l1.8,4.4l1.5-2.8l2.7,0.1l0.9,3.4l-0.3,2.6l2.7-0.3l1.7,1.4l1.2,1.8l0.9,1.9h2.6h3l0.6,0.9
	l0.9,0.5l2.5-0.1l1.5-1.6l0.3,4l1.4,1.4l2.2,2.1l-1.8,3l-1.9,2.7l-1.4-2.8h-1.3v1l-0.1,1.7l-1,0.6l0.9,2.8l1.2,2.8l0.8,2.2l1.3,2.8
	l0.5,3l0.1,2.5l1,1.8l1.2,1.5l0.1,1.4v2.2l-0.8,3l0.4,2.3l2.1,2.2l2.2,1.4l-0.1,2.6l-1.3,1.9l-1.4,2.6l-1.4,2.3l-1,2.1l-0.9,0.1
	l-1.9,1.6l0.3,3.4l0.9,1.3l1.4,1.3v1.5l-0.6,0.6l-2.1,0.5l1,1.7v3.7l0.4,3.4l1.2,1.8l1.6,0.3l0.3,1.6l1.2,1v3.4h-1.2l-2.7-3.5
	l-1.3,0.5l-7.1-2.8l-3.9,1l-2.7,1.9l-2.2,0.5h-1.3l-1.6-0.9h-1.8l-0.8,2.3l-0.4,0.9l-2.1-0.8l-3.6,1.6v1.7v1.9l-2.1,1.7l-3,0.4
	l-1.7-1.5L400,239h-2.5l-6.5,0.9l-5.4,0.5l-2.7-1l-5,0.9l0.5-0.4l-1.8-1l-2.2-1.8l-1.7-0.6l-0.3-1l-0.4-3v-3.1l-0.8-2.3l-0.9-1
	l-0.8-1.4l-0.4-2.1l0.5-1.7l1.2-2.1l-0.1-2.3l-1-1.6l-1.9-2.5l-1.4-1.9l-1.4-2.3l-1.3-1.6l-2.1-1l-1.5-1.6l-1.6,0.5l-2.3,0.9
	l-1.3,0.4h-1.7l-1.4,0.1l-1.8,0.3l-1.9,0.1h-1.4l-1.5,0.5H344l-1.5-0.4h-1.2l-1.2,0.6l-3.2,0.1l-1.2,0.4h-1l-1.3,0.9l-1.3,1.2
	l-1.7,0.9h-1.7l-0.9-0.5l-1-2.5l-0.8,0.3l-2.6,0.3l-1.8,0.1l-1.7-0.4l-0.9-1.5l-0.8-1.3l-1.2,0.3l-1.2,0.4H315l-1.7,0.3l-1.5,0.8
	l-2.1,1l-2.1,1.3l-1.9,0.8l-1.5,1.4l-0.9,1.8l-0.9,1.7l-1.8,0.9l-2.1,1.8l-0.8,1.8l-2.8,1.3l-1.4-0.6l-1.8-1.3l-1.7-2.7l-0.4,0.1
	l1.5-0.6l1.4-1.6l-0.1-2.1l1-1.9l1-2.1l1.3-1.8l-0.5-3.2l0.6-1.8l2.8-1.9l0.8-1.2l-0.1-1.7l-2.5-0.6l-1-0.6l-1.7-3.5l-1.3-2.6
	l-1.4-2.3l-1.7-3.5l-1.8,0.1l-0.4,1.4l-0.5,0.9l-2.8-0.8l-1.2,1l-0.8,0.8l-3-1.8l-2.1-1.4l-1-0.5l-1.6-5.2l-1.4-3.6l-0.8-2.8
	l0.9-3.9l0.3-0.8h-0.1l2.6,0.6l3,0.4l1.7,0.4l0.4-1.4l0.4-1.2l1.7-1.2l0.4-0.4v-2.1l-0.5-1.4l-1.3-1.6l-1.4-1.2l-0.8-1.4l-0.3-1.7
	v-1.8v-2.1l0.1-2.3l0.3-0.6l4.3-2.6l3-1.7l2.1-1.6l2.3,1.7l1,0.3l2.3,0.3l0.6-0.1l0.9,0.9l2.5-0.6h0.3l2.2,1.9l2.2,1.9l0.3,1.3
	l-0.1,1.7l1,0.1l0.8-1.8l2.1-0.3l1.7-0.1l0.9-1.4l1.8-0.4h1l1.6,1.8l1.4,0.9l4,0.5c0,0,1.2,0,1.7,0s1.8-0.4,1.8-0.4l0.5-1.3l1.7-2.6
	l0.9-0.8h1.4l2.1-0.1l0.9-1.3l-0.1-1.3l3.2-1.3l1.7-0.6l3.5-1.3l2.3-1l2.1-2.5l1.4-1.3"/>
<path class="st1" d="M225.2,119.7v-1.8l-0.6-1.5l0.1-0.3l-1.7-1.6l-3.2-1.9l-1.3-2.8l-0.9-3.4l1.3-0.6l1.8,0.3l-0.1-1.6l0.9-1.3
	l2.1-1l0.3-1.7v-1.7l1.5-0.9h2.3l2.1-0.4l1.7-0.4l0.6-1.2l1.3-2.2l0.5-1.3l1.7-0.3h1.9l1-0.6l0.8-0.8l1.4-0.1l1.3-1.2l2.2-1l5-0.1
	l1.5-0.5l2.8-2.1l1.9-2.2l1.8-1.9l1.3-1.6l0.4-1.5l0.5-1.3l0.4-1.3V74l-0.1-1.8v-1.6l0.4-1.6l1.3-1.9l-0.9-2.3l-0.6-1.8v-1.4l1.3-1
	l1.8-0.8l1.9-0.5l1.7,1.2l1,1l1.6-0.5l0.9-0.1l1.2,0.9l2.1,0.1l0.5,1l0.8,0.9l1.9,1.2l1.2,0.5l0.9-1.2l0.3-3.2l1.7-0.3l2.1-1.9v-2.1
	l1.6-1.8l-1.4-6.3l1-1.6l-2.7-2.2l1.2-1.4l0.5-1.3l0.5-2.1l1.7,0.3l1.8,0.1l5,4.1l2.6,0.3l1.8,2.7l1.8,1.2v1.6l-1.9,0.9v1.2l1.3,1.2
	l0.1,1l2.3,1.3l7.9,0.1l2.1,1.2l1.9,0.1l1.7,0.3l1.7,0.5l1.9,1.3l1.9-2.1l1.4-1.7l1.6,0.1l1.2-2.6v-2.8l2.6-0.6l1.6,1.8l1.7,0.8
	l1.7,0.8l1.3-1.3l1.3-1l1.2,0.6l0.4,1.6h2.1l0.6,2.1l1.9,0.1l0.1-0.1v1.4h2.2l2.2,0.4l2.6,1l2.3,0.8l2.8,0.3l2.5,1.6l-0.4,1.4
	l-1.3,0.1l-1.2,1.7l-0.4,1.2l0.4,1.3l3,2.3l1.3,0.5l0.1,3.2h1.5v0.9l0.1,2.5l-0.1,1.3l1,1.7l0.3,1.9l-0.1,3l0.1,2.6l0.4,4.1
	l-0.9-0.5l-1.2-0.5l-1-0.9l-1.4,0.1l-1.2,0.1l-1.3,0.9l-1.7,1.8l-1.3,1.7l-1.3,0.5l-1.5,0.4l-1.4,0.4l-1.5,0.4l-2.3,0.6l-2.6-0.8
	l-0.9-0.6l-1.4-1.6l-1.6-1.7l-0.4-1l-1.8-0.1l-2.3-0.3l-2.6,2.1l-0.3,2.3l0.3,2.7l-0.6,2.6l1.3,2.5l-0.5,0.9l-0.6,1.8l-1.2,2.5
	l0.5,1.9l2.6,2.1l1.4,1.2l1.4,1.2l1.4,0.3l1.3,0.8l1,1l1.9,1.6l2.1,0.6l1.6,0.6h1.4l2.1,0.9l2.3,1.9l0.4,2.1l-1,0.8v1.8l-0.9,1.9
	l-0.6,1.2v1.6l0.9,2.5l-0.4,2.3l-1.4,1.3l-2.1,2.5l-2.3,1l-3.5,1.3l-1.7,0.6l-3.2,1.3l0.1,1.3l-0.9,1.3l-2.1,0.1h-1.4l-0.9,0.8
	l-1.7,2.6l-0.5,1.3c0,0-1.3,0.4-1.8,0.4s-1.7,0-1.7,0l-4-0.5l-1.4-0.9l-1.6-1.8h-1l-1.8,0.4l-0.9,1.4l-1.7,0.1l-2.1,0.3l-0.8,1.8
	l-1-0.1l0.1-1.7l-0.3-1.3l-2.2-1.9l-2.2-1.9h-0.3l-2.5,0.6l-0.9-0.9l-0.6,0.1l-2.3-0.3l-1-0.3l-2.3-1.7l-2.1,1.6l-3,1.7l-4.3,2.6
	l-0.3,0.6l-0.1,2.3v2.1v1.8l0.3,1.7l0.8,1.4l1.4,1.2l1.3,1.6l0.5,1.4v2.1l-0.4,0.4l-1.7,1.2l-0.4,1.2l-0.4,1.4l-1.7-0.4l-3-0.4
	l-2.6-0.6h0.1l-2.3-1.6l-2.1-1.7l-2.7-1.7l-0.1-2.2l0.8-2.3l1.2-2.1l-0.3-2.1l-0.9-0.9l1.3-4l1.2-3.6l-0.3-1.7l-0.9-0.4l-2.2-0.3
	l-2.6-1.5l-1.6-1.3v-0.5h5.6l0.8-0.8l-0.1-1.2l-3.4-1.5l-4.7-0.4l-2.2,0.1H255l-1.3-2.5l-1.5-4.9l-1-4l0.9-3.1l3.2,0.1l1.7,0.1V119
	l-1-1.6l-2.6-0.5l-2.6,0.4l-1.7,1.6l-4.3,0.1l-4.4-0.6l-2.8-2.6l-1.3-1.3l-2.5,0.1l-2.1,0.6l-1.4,0.1l-0.5,1.3l-0.8,2.2l-3.8,1"/>
<path class="st4" d="M494.4,86.6l-1.7,1.7L491,90l-0.6-0.8l-2.8,1l0.8,2.2l-0.1,2.1l-0.8,1l-1.4-1l-2.6-1.8h-2.2l-2.1,1.8l-1.5,2.2
	l-2.7,1.5l-2.5,1l-1.9,1l-0.1,2.8l-0.5,1.6l-1.9,1l-1.7,0.8v2.2l-1.3,1.2l-1.8,1.4l-1.3-1.3l-2.5-1.6l-1.6,0.5l-3.2,0.6l-1.8,1.6
	l-0.9,1.3l-1.8,2.6l0.4,2.1l0.4,2.5l-1.2,1.9v1.8L448,123l-1.6,1.4v3l0.5,2.2l0.4,1.2l1.2,1.8l1.4,1.2l2.2,2.2l0.9,1.2l0.1,1.4
	L452,140v1.6l-0.5,1.4l-1.3,1l-0.3,1.6l0.1,2.6l2.1,2.1l-0.8,2.1l-1.8,2.1l-2.1,1.7l-2.2,1.9l-2.5,0.3l-3,0.3l0.1,0.1l-1.8,3
	l-1.9,2.7l-1.4-2.8h-1.3v1l-0.1,1.7l-1,0.6l0.9,2.8l1.2,2.8l0.8,2.2l1.3,2.8l0.5,3l0.1,2.5l1,1.8l1.2,1.5l0.1,1.4v2.2l-0.8,3
	l0.4,2.3l2.1,2.2l2.2,1.4l-0.1,2.6l-1.3,1.9l-1.4,2.6l-1.4,2.3l-1,2.1l-0.9,0.1l-1.9,1.6l0.3,3.4l0.9,1.3l1.4,1.3v1.5l0,0.2l1.4-1
	l2.5-1.9l2.5-0.6l2.5-3.7l1.3-1.7l0.5-2.1l2.3-0.3l0.5-1.2l0.5-1.7l1.3-1.3l0.5-1.6l0.3-1.6l0.9,0.8h1l2.2-0.9l1.7,0.5l1.6-0.9
	l1.9,1.2l1.2-0.9l1,0.3l2.5-0.1l0.6-0.6l-0.6-0.9l-1.8-0.5h-2.2l0.4-1.4l3.2-1.4l0.9-1.8h-1.9l-1.4-2.5l1.2-1.3l1-1.2l0.8-0.5
	l0.6-1.4l-0.9-1.2l-1.7,0.1l-2.3,1.7l-0.6-2.3l0.8-1l-0.8-1.4h-1l-0.9-1.9l0.9-1.4l0.1-3.9l-0.1-2.5l1-1.8l-0.1-3.2l-1.8-0.4
	l0.4-3.6l-0.8-2.5l0.6-1.3h1.2l1.8,1.8l1.6-1.8l3-0.1l4.3-4l1.5-1.9l-0.6-1.7l-0.5-1.9l1.8-0.8l1.4-1.2l-0.1-2.2l-2.8-1.8l-0.3-3.6
	l-2.6-2.2l-2.2,0.9l-5-1.9l-1.8,0.6l-4.5-1.8l1.3-1.9h1.7l1.3-2.2l3.1-1.7l-0.9-2.3l0.6-1.4h2.8l2.1-1l2.1,1.6l2.2-0.1l0.4,0.9h1.2
	l1,0.6l0.8,2.1l1.7,0.9l4.8,1.3l1.6-4.5l1.5,2.5l9.2-2.7l3.7-0.1l-1.6-2.6l0.1-3.9l-1.4-1.6l-0.1-1.2l0.6-1.4l-0.8-1.4l-3.2-2.3
	v-0.8l3-0.6l2.2-2.6l-0.3-4l0.6-2.2l-0.5-1.4l3-4.3l-1-1.3l-3.7-0.1l-0.6-3l-0.1-3l-0.4-1.9L494.4,86.6"/>
<path class="st4" d="M355.5,11.3l-0.3,2.2l-0.8,2.1l1.4,5.9l-0.4,1.9l-0.5,2.1l0.3,1.7l-0.1,1.5l-0.8,2.5l0.5,1.7l0.9,1.7l-0.8,1.7
	h-0.8l-1.4-0.8l-3.4-0.5h-3.7l-0.6,4.8l-4,4.3l-0.9,3.5l0.3,4.5l-0.9,3.1l0.1-0.1v1.4h2.2l2.2,0.4l2.6,1l2.3,0.8l2.8,0.3l2.5,1.5
	l-0.4,1.4l-1.3,0.1l-1.2,1.7l-0.4,1.2l0.4,1.3l3,2.3l1.3,0.5l0.1,3.2h1.5V73l0.1,2.5l-0.1,1.3l1,1.7l0.3,1.9l-0.1,3l0.1,2.6l0.4,4.1
	l-0.9-0.5l-1.2-0.5l-1-0.9l-1.4,0.1l-1.2,0.1l-1.3,0.9l-1.7,1.8l-1.3,1.7l-1.3,0.5l-1.5,0.4l-1.4,0.4l-1.5,0.4l-2.3,0.6l-2.6-0.8
	l-0.9-0.6l-1.4-1.5l-1.5-1.7l-0.4-1l-1.8-0.1l-2.3-0.3l-2.6,2.1l-0.3,2.3l0.3,2.7l-0.6,2.6l1.3,2.5l-0.5,0.9l-0.6,1.8l-1.2,2.5
	l0.5,1.9l2.6,2.1l1.4,1.2l1.4,1.2l1.4,0.3l1.3,0.8l1,1l1.9,1.5l2.1,0.6l1.5,0.6h1.4l2.1,0.9l2.3,1.9l0.4,2.1l-1,0.8v1.8l-0.9,1.9
	l-0.6,1.2v1.5l0.9,2.5l-0.4,2.2l0.6,1l1.4,1.2l1.5-1.3l3.6,0.1l1.4,0.3l1,0.5l2.1,1.8c0,0,0.9,0.1,1.7,0.3c0.8,0.1,1.7-0.6,1.7-0.6
	l1.3-3l1.5-0.4l2.3-0.3l1.5,0.9l1.3-0.4l2.2-1.2l2.5-1l2.7-0.6l1-3l0.8-0.5l1.3-1.4l1.7,0.4l2.1-0.5l1.2-1.2l1.3-0.3
	c0,0,1.2,0,2.1,0c0.9,0,2.6,2.5,2.6,2.5l1.5,1.9c0,0,2.3,0.3,2.8,0.3c0.5,0,2.6,0.8,2.6,0.8l1.8,2.2l2.7-0.4h2.8l1.2,2.6l1.5,0.3
	l2.1,0.3h2.3l1.2,3.2l1.8,4.4l1.5-2.8l2.7,0.1l0.9,3.4l-0.3,2.6l2.7-0.3l1.7,1.4l1.2,1.8l0.9,1.9h2.6h3l0.6,0.9l0.9,0.5l2.5-0.1
	l1.5-1.5l0.3,4l1.4,1.4l2.1,1.9l3-0.3l2.5-0.3l2.2-1.9l2.1-1.7l1.8-2.1l0.8-2.1l-2.1-2.1l-0.1-2.6l0.3-1.5l1.3-1l0.5-1.4v-1.5
	l1.2-1.4l-0.1-1.4l-0.9-1.2l-2.2-2.2l-1.4-1.2l-1.2-1.8l-0.4-1.2l-0.5-2.2v-3l1.5-1.4l1.7,0.3v-1.8l1.2-1.9l-0.4-2.5l-0.4-2.1
	l1.8-2.6l0.9-1.3l1.8-1.5l3.2-0.6l1.5-0.5l2.5,1.5l1.3,1.3l1.8-1.4l1.3-1.2v-2.2l1.7-0.8l1.9-1l0.5-1.5l0.1-2.8l1.9-1l2.5-1l2.7-1.5
	l1.5-2.2l2.1-1.8h2.2l2.6,1.8l1.4,1l0.8-1l0.1-2.1l-0.8-2.2l2.8-1l0.6,0.8l1.7-1.7l1.7-1.7l0-0.1l-0.9-1.1h-1.2l-1.5-0.5l-1.7-1.8
	l-1.4-0.3L487,80l-0.5-1.9l-0.8-2.1v-3l-1.9-0.5l-0.5-0.8l-1.4-1.8l-0.5-2.3l-3.4-1.8l-0.8-2.3l0.9-1.2l-0.1-6.6l1.5-3.4l1.5-2.8
	l1.8-3.1l-1.3-3.6v-1.9l-0.6-2.2l-2.2-7l-1.9-2.3l-2.7,1.5h-3.7l-1.8-2.1l-2.8-0.4l-0.4,1.2l-1.3,0.6l-0.5-1.7v-2.2l-1.9-1.8
	l-2.7,1.3l-4.8-2.6l-1.9,1.3l-2.6-0.6l-2.1,5.8l-2.8,2.1l-1.2-1h-1.2l-1,1.5l-0.9-0.9h-0.6l-4.3,0.4l-4.6-0.9l-1.3,1h-2.8l-8.9-5
	l-1.3-2.1l-7.2-3.7h-3.5l-0.3,0.9l-0.6,1.3l-4.6-0.4l-0.6-0.9l-1.5-1l-2.2-1.2l-3.2-0.4l-3.7-0.8l-2.5-3.4h-3.1l-5-2.5l-2.3,0.9
	l-2.1-1.4l-0.9,4l-3-0.1l-1.9,1.5l-1.9-0.3l1.3-2.3l-1.7-2.6h-4.5l-1-1L355.5,11.3L355.5,11.3z M449.1,69.1
	C449.1,69.1,449.1,69.1,449.1,69.1c0.3,0.1,0.6,0.3,0.8,0.4c0.6,0.2,0.5,0.7,0.5,1.2c0.4,0.6,0.1,1.3,0.2,2c0.9,0.7,1.9,1.3,2.8,2
	c0.1,0.2,0.2,0.2,0.3,0.2c0.2-0.1,0.4-0.6,0.3-0.8c0-0.4-0.3-1-0.1-1.3c0.8-0.1,1.6,0.2,2.3,0.6c0.7,0.2,0.2,0.8,0,1.2
	c-0.5,0.5,0.3,0.7,0.3,1.2c0.5,0.2,0.6,0.7,1.3,0.7c0.4,0,0.9-0.3,1.3-0.1c-0.1,0.8-0.4,1.6-0.6,2.4c0.6,0,0.6,0.5,1.1,0.4
	c-0.3,0.7-0.4,1.4-0.5,2.1c0.1,0.6-0.2,1.1-0.4,1.6c-0.3,0.4-0.4,0.9-0.2,1.4c0.2,0.5,0.2,1,0,1.5c0.3,0.3-0.2,0.8-0.1,1.2
	c0.1,0.6,1,0.2,0.7-0.3c0.1,0,0.2,0,0.3,0.1c0,0,0,0,0,0c0,0,0,0,0,0c0,0,0,0,0,0c0,0,0,0,0,0c0,0,0,0,0,0c0,0,0,0,0,0
	c0.1,0.2-0.4,0.7-0.2,1c0,0,0,0,0,0.1c0,0,0.1,0.1,0.2,0.1c0,0,0,0,0,0c0,0.1,0.1,0.3,0.2,0.4c0.1,0.1,0.1,0.1,0.2,0.1
	c0,0,0,0,0.1,0c0.1,0,0.2-0.1,0.2-0.2c0,0.1,0.1,0.2,0.1,0.2c0,0,0,0,0,0c0,0,0,0,0,0c0,0,0,0,0,0c0,0,0,0,0,0c0,0,0,0,0,0
	c0,0,0,0,0,0c0.2,0,0.4-0.2,0.6-0.3c0.6-0.1,0.6,0.7,0.3,1c0.4,0.3,0.5,0.9,0.2,1.3c0.1,0.4,0.1,0.6,0,0.7c0,0,0,0,0,0c0,0,0,0,0,0
	c0,0,0,0,0,0c0,0,0,0,0,0c-0.4,0.2-1.5-0.5-2-0.6c-1-0.2-1.4-1.4-2.3-1.8c-0.5-0.5-1.1-0.2-1.6,0c-0.5-0.2-0.7-0.2-1.1,0.2
	c-0.2-0.1-0.4-0.2-0.5-0.1c0,0-0.1,0-0.1,0c0,0,0,0,0,0c-0.1,0.1-0.2,0.3-0.4,0.5c-0.4,0.3-0.6,0.8-1,1c-0.5,0.8-1.3,0.6-2.2,0.6
	c-0.5,0.2,0.1,0.9,0,1.3c0,0.3,0.2,0.5,0.2,0.6c0,0,0,0,0,0c0,0,0,0,0,0c0,0,0,0,0,0c0,0,0,0,0,0c0,0,0,0,0,0c0,0,0,0,0,0
	c0,0,0,0,0,0c0,0,0,0-0.1,0c-0.1,0-0.2,0-0.4-0.1c-0.5-0.5-0.7,0.4-1.2,0.1c-0.1,0.1-0.1,0.2-0.2,0.3c0,0,0,0,0,0c0,0,0,0,0,0
	c0,0,0,0,0,0c0,0,0,0,0,0s0,0,0,0c0,0,0,0,0,0c0,0,0,0,0,0c-0.1-0.1-0.3-0.3-0.5-0.4c-0.7,0-1.2-0.6-1.8-0.5
	c-0.7-0.2-1.6-0.2-2.2-0.7c-0.6-0.3-1.4-0.4-2.1-0.7c0,0-0.1,0-0.1,0.1c-0.2,0.3-0.3,0.8-0.5,1.2c0,0.1,0,0.2-0.1,0.2c0,0,0,0,0,0
	c0,0,0,0,0,0c0,0,0,0,0,0c0,0,0,0,0,0c0,0,0,0,0,0c0,0,0,0,0,0c-0.1,0-0.1,0-0.2,0c0,0,0,0,0,0c0,0,0,0,0,0c0,0,0,0,0,0c0,0,0,0,0,0
	c0,0,0,0,0,0c0,0.1-0.1,0.2-0.1,0.3c0,0.1,0,0.2-0.1,0.2c0,0,0,0-0.1,0c-0.2,0-0.7-0.5-0.8-0.7c0.1-0.3,0-0.4-0.1-0.5
	c-0.2-0.1-0.5-0.1-0.7-0.2c0,0,0,0,0,0c0,0,0,0,0,0c-0.5,0.2-1.2-0.9-1.9-0.3c-0.7,0.6-1.9-0.2-2.7,0.5c-0.4,0.2-0.9,0.6-1.3,0.3
	c0.2-0.5,0.8-0.4,1.2-0.6c0.3-0.1,0.5-0.2,0.6-0.3c0,0,0,0,0,0c0,0,0-0.1,0-0.1c0-0.1,0-0.2-0.1-0.4c-0.4,0.1-0.9,0.1-1.3,0.2
	c0-0.5-0.6-0.8-0.6-1.3c-0.1-0.1-0.1-0.2-0.2-0.2c0,0,0,0,0,0c0,0,0,0,0,0c0,0,0,0,0,0c0,0,0,0,0,0c0,0,0,0,0,0c0,0,0,0,0,0
	c0,0,0,0,0,0c0,0,0,0,0,0c0,0,0,0,0,0c0,0,0,0,0,0c0.1-0.2,0.9-0.1,1.1-0.4c0,0,0,0,0,0c0,0,0,0,0,0c0,0,0,0,0,0c0,0,0,0,0,0
	c0,0,0,0,0,0c0,0,0,0,0,0c-0.6,0-1.1-0.1-1.6-0.2c-0.1,0.1-0.2,0.1-0.3,0.1c0,0,0,0-0.1,0c0,0,0,0,0,0c0,0,0,0,0,0c0,0,0,0,0,0
	c0,0,0,0,0,0c0,0,0,0,0,0c0,0,0,0,0,0c0,0,0,0,0,0c0,0,0,0,0,0c0,0,0,0,0,0c-0.2-0.2-0.1-1-0.3-1.3c-0.1-0.1-0.1-0.1-0.2-0.2
	c-0.4,0-0.6-0.1-0.6-0.2c-0.1-0.2,0.3-0.5,0.3-0.9c0.2-0.3,0.7-0.6,0.8-0.9c0.4-0.2,0.3-0.8,0.4-1.2c0.2-0.5,0.4-0.8,0-1.2
	c0.2-0.2,0.4-0.4,0.5-0.5c0,0,0,0,0,0c0,0,0,0,0,0c0,0,0,0,0,0c0,0,0,0,0-0.1c0,0,0,0,0,0c0,0,0,0,0,0c-0.1-0.1-0.2-0.1-0.3-0.1
	c0,0,0,0,0,0c0,0,0,0,0,0c0,0,0,0,0,0c0,0,0,0,0,0c0,0,0,0,0,0c-0.4,0-0.7-0.8-0.5-1c0,0,0,0,0,0c0,0,0,0,0,0c0,0,0,0,0,0
	c0,0,0,0,0,0c0,0,0,0,0,0c0,0,0,0,0,0c0,0,0,0,0.1,0c0,0,0,0,0.1,0c0,0,0,0,0.1,0c0,0,0,0,0,0c0,0,0,0,0,0c0,0,0,0,0,0c0,0,0,0,0,0
	c-0.2-0.3-0.9-0.1-1.1-0.1c0,0,0,0,0,0c0,0,0,0,0,0c0,0,0,0,0,0c0,0,0,0,0,0c0,0,0,0,0,0c0,0,0,0,0,0c0,0,0.1-0.1,0.3-0.2
	c0.2-0.3,0.6-0.3,0.7-0.5c0,0,0,0,0,0c0,0,0,0,0,0c0,0,0,0,0,0c0,0,0,0,0,0c0,0,0,0,0,0c0,0,0,0,0,0c0,0,0,0,0,0c0,0,0,0,0,0
	c-0.6-0.4-0.5-1.2-0.3-1.8c0.1-0.5,0.4-0.8,0.6-1.3c0.1-0.2,0.2-0.5,0.3-0.7c0,0,0-0.1,0.1-0.1c0,0,0,0,0.1,0c0,0,0,0,0.1,0
	c0.1,0,0.1,0.1,0.2,0.1c0.7,0.3,1.2,0.9,1.7,1.5c0.2,0,0.4,0.1,0.5,0.2c0.1,0.2,0.1,0.4,0,0.7c0.2,0.6,0.8,0.5,1.2,0.3
	c0.2,0,0.2,0,0.3-0.1c0.1-0.1,0.1-0.4,0.1-0.5c0,0,0,0,0,0c0,0,0,0,0,0c0.1,0,0.1,0,0.2,0c0.3-0.3,0.5-0.6,0.6-0.9
	c-0.2,0-0.2,0-0.3-0.1c0,0,0,0,0,0c0,0,0,0,0,0c0,0,0,0,0,0c0,0,0,0,0,0c0,0,0,0,0,0c0,0,0,0,0,0c0,0,0,0,0,0c0,0,0,0,0,0
	c0.2-0.1,0.7-0.2,0.8-0.2c0.7,0.1,0.6-0.4,1.2-0.7c0.1-0.1,0.2-0.2,0.2-0.3c0,0,0-0.1,0-0.1c-0.1-0.1-0.5-0.1-0.6-0.2c0,0,0,0,0,0
	c0,0,0,0,0,0c0,0,0,0,0,0c0,0,0,0,0,0c0,0,0-0.1,0.1-0.1c0.2-0.4,0.7-0.6,1.1-0.5c0.5,0.4,1.2-0.3,1.5-0.6c0.3,0.1,0.6,0.1,0.8,0
	c0,0,0,0,0,0c0-0.1,0.1-0.1,0.1-0.2c0.3-0.3,1.3-0.3,0.9-0.8c-0.1-0.1-0.1-0.1-0.1-0.2c0,0,0,0,0,0c0,0,0,0,0,0c0,0,0,0,0,0
	c0,0,0,0,0,0c0,0,0,0,0,0c0,0,0,0,0,0c0,0,0,0,0,0c0.2-0.1,0.9,0.2,0.9,0.6c0,0,0,0,0,0c0,0,0,0,0,0c0.5-0.1,0.9,0.5,1.3,0.3
	c-0.1-0.2-0.1-0.5,0-0.7c0.1-0.1,0.3-0.2,0.5-0.1c0.1,0,0.2,0,0.2-0.1c0.1-0.2-0.4-0.8-0.2-1c0-0.1,0-0.2,0-0.3
	c0.1-0.1,0.4-0.1,0.6-0.2c0,0,0.1,0,0.1-0.1c0,0,0-0.1-0.1-0.2c-0.2-0.3,0-0.8-0.3-1.1c-0.1-0.2,0-0.3,0.1-0.4
	c0.2-0.2,0.6-0.3,0.7-0.5c0,0,0,0,0.1,0c0,0,0,0,0,0c0,0,0,0,0,0c0,0,0,0,0,0c0,0,0,0,0,0c0,0,0.1,0,0.1,0c0.2,0.2,0.4,0.6,0.8,0.5
	C447.9,69.3,448.5,69.1,449.1,69.1L449.1,69.1z"/>
<path class="st5" d="M449.1,69.1c-0.6,0-1.2,0.2-1.5,0.7c-0.5,0.2-0.7-0.8-1-0.5c-0.2,0.3-1,0.3-0.8,0.9c0.3,0.4,0.1,0.8,0.3,1.1
	c0.4,0.6-0.7,0-0.6,0.7c-0.2,0.3,0.6,1.1,0,1.2c-0.6-0.1-0.8,0.4-0.6,0.8c-0.4,0.3-0.8-0.4-1.3-0.2c0.2-0.6-1.2-1-0.8-0.4
	c0.4,0.5-0.6,0.6-0.9,0.8c-0.2,0.4-0.5,0.5-1,0.3c-0.2,0.3-1,1-1.5,0.6c-0.4,0-0.9,0.2-1.1,0.5c-0.4,0.4,1,0.2,0.4,0.7
	c-0.6,0.3-0.4,0.8-1.2,0.7c-0.3,0-1.4,0.3-0.6,0.3c-0.2,0.4-0.3,0.7-0.6,0.9c-0.6-0.1-0.1,0.8-0.7,0.7c-0.4,0.2-0.9,0.3-1.2-0.3
	c0.3-0.5,0.1-0.9-0.4-0.9c-0.5-0.6-1-1.1-1.7-1.5c-0.5-0.5-0.5,0.4-0.7,0.7c-0.2,0.5-0.5,0.8-0.6,1.3c-0.2,0.6-0.3,1.4,0.3,1.8
	c0.1,0.3-0.5,0.2-0.8,0.6c-1,0.6,0.8-0.1,0.8,0.5c-0.8,0-0.2,1.4,0.4,1.1c0.7,0.2,0.2,0.5-0.1,0.9c0.5,0.4,0.2,0.7,0,1.2
	c-0.1,0.4,0,1-0.4,1.2c-0.2,0.3-0.6,0.6-0.8,0.9c0,0.6-1,1,0.3,1.1c0.8,0.3,0.1,1.9,1,1.5c0.5,0.1,1.1,0.2,1.7,0.2
	c0,0.6-1.6,0.1-1,0.8c0.1,0.5,0.7,0.8,0.6,1.3c0.4-0.1,0.9-0.1,1.3-0.2c0.2,0.4,0,0.7-0.5,0.8c-0.4,0.2-1,0.1-1.2,0.6
	c0.4,0.3,0.9-0.1,1.3-0.3c0.8-0.8,1.9,0.1,2.7-0.5c0.7-0.7,1.5,0.6,2,0.2c0.5,0.1,1,0,0.9,0.7c0.3,0.2,0.9,1.1,1,0.4
	c0-0.8,0.5-0.1,0.6-0.7c0.2-0.4,0.3-1,0.6-1.2c0.7,0.3,1.4,0.4,2.1,0.7c0.6,0.5,1.5,0.5,2.2,0.7c0.7-0.1,1.2,0.5,1.8,0.5
	c0.4,0.2,0.6,0.8,0.9,0.2c0.6,0.3,0.7-0.6,1.2-0.1c0.8,0.3,0.5-0.1,0.4-0.6c0.1-0.4-0.5-1.2,0-1.3c0.9,0,1.7,0.1,2.2-0.6
	c0.4-0.3,0.6-0.8,1-1c0.3-0.5,0.4-0.7,1-0.4c0.4-0.4,0.6-0.3,1.1-0.2c0.5-0.2,1.1-0.5,1.6,0c0.9,0.4,1.3,1.6,2.3,1.8
	c0.8,0.1,2.6,1.5,2.1-0.2c0.3-0.3,0.1-1-0.2-1.3c0.3-0.3,0.3-1.1-0.3-1c-0.4,0.2-0.8,0.5-0.9,0c-0.3,0.6-0.7-0.1-0.7-0.3
	c-0.8-0.4,0.6-1.2-0.3-1.3c0.3,0.5-0.6,0.9-0.7,0.3c-0.1-0.5,0.4-0.9,0.1-1.2c0.2-0.5,0.3-1,0-1.5c-0.2-0.5-0.1-0.9,0.2-1.4
	c0.2-0.5,0.5-1,0.4-1.6c0.1-0.7,0.2-1.4,0.5-2.1c-0.5,0-0.5-0.5-1.1-0.4c0.2-0.8,0.5-1.6,0.6-2.4c-0.5-0.2-0.9,0-1.3,0.1
	c-0.6,0.1-0.8-0.5-1.3-0.7c0-0.5-0.7-0.6-0.3-1.2c0.2-0.4,0.7-0.9,0-1.2c-0.7-0.4-1.5-0.7-2.3-0.6c-0.2,0.3,0.1,0.9,0.1,1.3
	c0.1,0.4-0.3,1.2-0.7,0.7c-0.9-0.7-1.8-1.3-2.8-2c-0.1-0.7,0.2-1.4-0.2-2c0-0.5,0.1-1-0.5-1.2C449.6,69.4,449.4,69.3,449.1,69.1
	L449.1,69.1z"/>
<g>
	<path class="st6" d="M8.4,9.2c0,0.8-0.3,1.5-0.8,2.1s-1.2,0.9-2,0.9c-0.3,0-0.7,0-1.3-0.1c0.1-0.4,0.2-1.3,0.3-2.7
		C4.7,8.5,4.7,7.7,4.7,7h0.4c0.1,0,0.3,0,0.5,0S6,7,6.1,7c0.8,0,1.3,0.2,1.7,0.6S8.4,8.6,8.4,9.2z M7.7,9.3c0-0.5-0.2-0.9-0.5-1.3
		S6.5,7.5,5.8,7.5c-0.2,0-0.3,0-0.5,0c0,0.3-0.1,0.9-0.2,1.9C5.1,10.1,5,10.8,5,11.5c0.2,0,0.4,0.1,0.6,0.1c0.7,0,1.2-0.2,1.6-0.7
		S7.7,9.9,7.7,9.3z"/>
	<path class="st6" d="M12.1,8.2c-0.2,1.3-0.4,2.3-0.4,2.9c0,0.3,0,0.6,0.1,1l-0.7,0.1c0-0.2,0-0.5,0-0.9h0c-0.3,0.6-0.8,0.9-1.3,0.9
		c-0.3,0-0.6-0.1-0.7-0.4s-0.2-0.6-0.2-1c0-0.7,0.2-1.2,0.7-1.7s1.1-0.7,2-0.7l0.2-0.1L12.1,8.2z M11.4,8.8c-0.7,0-1.1,0.2-1.4,0.5
		s-0.5,0.8-0.5,1.4c0,0.6,0.2,0.9,0.6,0.9c0.3,0,0.5-0.2,0.8-0.6s0.4-0.8,0.4-1.1S11.4,9.2,11.4,8.8z"/>
	<path class="st6" d="M15.1,11.4L15,11.9c-0.3,0.2-0.6,0.3-0.8,0.3c-0.4,0-0.6-0.1-0.7-0.3s-0.2-0.5-0.2-0.8c0-0.3,0.1-1,0.2-2.1
		c-0.1,0-0.4,0-0.6,0l0.1-0.6c0.2,0,0.5,0,0.6,0c0-0.1,0.1-0.5,0.2-1.1l0.6-0.1c0,0.3-0.1,0.7-0.2,1.2c0.2,0,0.6,0,1,0L15.1,9
		c-0.4,0-0.8,0-1.1,0c-0.1,0.9-0.2,1.5-0.2,1.9c0,0.3,0,0.5,0.1,0.6s0.2,0.2,0.4,0.2C14.6,11.6,14.8,11.5,15.1,11.4z"/>
	<path class="st6" d="M18.9,8.2c-0.2,1.3-0.4,2.3-0.4,2.9c0,0.3,0,0.6,0.1,1L18,12.1c0-0.2,0-0.5,0-0.9h0c-0.3,0.6-0.8,0.9-1.3,0.9
		c-0.3,0-0.6-0.1-0.7-0.4s-0.2-0.6-0.2-1c0-0.7,0.2-1.2,0.7-1.7s1.1-0.7,2-0.7l0.2-0.1L18.9,8.2z M18.2,8.8c-0.7,0-1.1,0.2-1.4,0.5
		s-0.5,0.8-0.5,1.4c0,0.6,0.2,0.9,0.6,0.9c0.3,0,0.5-0.2,0.8-0.6s0.4-0.8,0.4-1.1S18.2,9.2,18.2,8.8z"/>
	<path class="st6" d="M24.5,8.3c0,0.3-0.3,1-0.8,2s-0.9,1.6-0.9,1.8c-0.2,0.7-0.5,1.1-0.7,1.3c-0.2,0.3-0.6,0.4-1.1,0.4l0-0.5
		c0.3,0,0.6-0.1,0.9-0.4s0.4-0.5,0.4-0.9c0-0.4-0.2-1-0.5-1.9s-0.5-1.5-0.5-1.7l0.8,0c0,0.3,0.1,0.9,0.3,1.6s0.3,1.2,0.3,1.5h0
		c0-0.1,0.2-0.6,0.6-1.4s0.5-1.3,0.5-1.7L24.5,8.3z"/>
	<path class="st6" d="M28.1,9.1c0,0.4-0.2,0.6-0.5,0.8c-0.4,0.2-1.1,0.4-2.1,0.4c0,0.5,0.1,0.8,0.2,1s0.4,0.3,0.8,0.3
		c0.4,0,0.8-0.1,1.2-0.4l-0.1,0.6c-0.4,0.3-0.8,0.4-1.3,0.4c-0.5,0-0.9-0.2-1.2-0.5s-0.4-0.7-0.4-1.2c0-0.7,0.2-1.3,0.6-1.7
		s0.9-0.6,1.5-0.6c0.3,0,0.6,0.1,0.8,0.2S28.1,8.8,28.1,9.1z M27.5,9.1c0-0.1-0.1-0.2-0.2-0.3S27,8.7,26.8,8.7
		c-0.3,0-0.5,0.1-0.8,0.3s-0.4,0.5-0.5,0.9c0.8,0,1.3-0.1,1.6-0.3C27.4,9.5,27.5,9.3,27.5,9.1z"/>
	<path class="st6" d="M31.8,8.2c-0.2,1.3-0.4,2.3-0.4,2.9c0,0.3,0,0.6,0.1,1l-0.7,0.1c0-0.2,0-0.5,0-0.9h0c-0.3,0.6-0.8,0.9-1.3,0.9
		c-0.3,0-0.6-0.1-0.7-0.4s-0.2-0.6-0.2-1c0-0.7,0.2-1.2,0.7-1.7s1.1-0.7,2-0.7l0.2-0.1L31.8,8.2z M31.1,8.8c-0.7,0-1.1,0.2-1.4,0.5
		s-0.5,0.8-0.5,1.4c0,0.6,0.2,0.9,0.6,0.9c0.3,0,0.5-0.2,0.8-0.6S31,10.3,31,9.9S31.1,9.2,31.1,8.8z"/>
	<path class="st6" d="M35.1,8.3l-0.2,0.6c-0.2-0.1-0.4-0.1-0.5-0.1c-0.6,0-0.9,0.3-1,0.9c-0.1,0.9-0.2,1.7-0.2,2.3l-0.6,0
		c0.2-1.3,0.3-2.3,0.3-2.7c0-0.3,0-0.6-0.1-1l0.7-0.1c0,0.2,0,0.4,0,0.6h0c0.3-0.4,0.6-0.6,1-0.6C34.7,8.2,34.9,8.3,35.1,8.3z"/>
	<path class="st6" d="M36.3,11.4c0,0.2-0.1,0.3-0.2,0.5s-0.3,0.2-0.4,0.2c-0.3,0-0.4-0.1-0.4-0.4c0-0.2,0.1-0.3,0.2-0.5
		s0.3-0.2,0.4-0.2C36.2,11,36.3,11.1,36.3,11.4z M36.6,8.8c0,0.2-0.1,0.3-0.2,0.5S36.2,9.4,36,9.4c-0.3,0-0.4-0.1-0.4-0.4
		c0-0.2,0.1-0.3,0.2-0.5s0.3-0.2,0.4-0.2C36.5,8.3,36.6,8.5,36.6,8.8z"/>
	<path class="st6" d="M41.7,11.5l-0.1,0.6h-2.7l0.1-0.6c0.4-0.2,0.8-0.5,1.3-0.9S41,9.7,41,9.2c0-0.5-0.3-0.7-1-0.7
		c-0.2,0-0.4,0-0.8,0.1L39.5,8c0.2-0.1,0.4-0.1,0.8-0.1c0.6,0,0.9,0.1,1.2,0.3s0.3,0.5,0.3,0.8c0,0.3-0.1,0.5-0.2,0.8
		s-0.3,0.5-0.7,0.8s-0.7,0.6-1.2,0.9l0,0C40.3,11.6,41,11.6,41.7,11.5z"/>
	<path class="st6" d="M46,9.6c0,0.7-0.2,1.3-0.5,1.8s-0.8,0.8-1.4,0.8c-0.5,0-0.9-0.2-1.1-0.5s-0.3-0.7-0.3-1.2
		c0-0.7,0.2-1.3,0.5-1.8s0.8-0.8,1.4-0.8c0.5,0,0.9,0.2,1.1,0.5S46,9.2,46,9.6z M45.4,9.7c0-0.4-0.1-0.7-0.2-0.9s-0.4-0.4-0.7-0.4
		c-0.3,0-0.6,0.2-0.8,0.6s-0.3,0.8-0.3,1.4c0,0.4,0.1,0.7,0.2,1s0.4,0.3,0.7,0.3c0.3,0,0.6-0.2,0.8-0.5S45.4,10.3,45.4,9.7z"/>
	<path class="st6" d="M48.2,12.1h-0.7c0.1-0.5,0.2-1.1,0.2-1.7c0.1-0.6,0.1-1.1,0.1-1.4L47,9.4L46.8,9l1.4-1h0.4
		c-0.1,0.8-0.2,1.6-0.3,2.4C48.3,10.9,48.3,11.5,48.2,12.1z"/>
	<path class="st6" d="M52.7,8c0,0.6-0.5,1.6-1.3,3s-1.3,2.2-1.3,2.4l-0.7-0.1c0-0.3,0.4-1,1.3-2.3s1.3-2.1,1.3-2.5
		c-0.5,0-1.3,0-2.3,0.1L49.7,8H52.7z"/>
	<path class="st6" d="M8,16.6L8,17.1c-0.5,0-1,0-1.5,0c-0.1,0.4-0.1,1.1-0.2,1.9s-0.2,1.7-0.2,2.7H5.3c0.1-0.4,0.2-1.3,0.3-2.7
		c0.1-0.8,0.1-1.4,0.2-1.9c-0.4,0-0.9,0-1.6,0l0.1-0.6H8z"/>
	<path class="st6" d="M11.7,19c0,0.2,0,0.6-0.1,1.3s-0.1,1.1-0.1,1.4l-0.7,0c0-0.1,0-0.5,0.1-1.1s0.1-1.1,0.1-1.4
		c0-0.3-0.1-0.5-0.2-0.6s-0.3-0.2-0.5-0.2c-0.3,0-0.6,0.2-0.8,0.6s-0.4,0.8-0.5,1.2C9,20.8,9,21.3,9,21.7l-0.7,0
		c0-0.2,0.1-1.2,0.3-3c0.1-1,0.2-1.9,0.2-2.6l0.7,0c0,0.1,0,0.3-0.1,0.6c-0.1,0.5-0.1,1-0.2,1.5c0,0.1,0,0.3-0.1,0.5h0
		c0.3-0.6,0.8-0.9,1.4-0.9C11.3,17.8,11.7,18.2,11.7,19z"/>
	<path class="st6" d="M13.5,17.9c0,0.2,0,0.4-0.1,0.8s-0.1,0.7-0.2,1.2c0,0.4-0.1,1-0.1,1.8l-0.7,0c0.1-0.4,0.1-1,0.2-1.8
		c0.1-0.5,0.1-1,0.1-1.4c0-0.2,0-0.3,0-0.5L13.5,17.9z M13.8,16.7c0,0.2,0,0.3-0.1,0.4s-0.2,0.2-0.4,0.2c-0.2,0-0.4-0.1-0.4-0.4
		c0-0.2,0-0.3,0.1-0.4s0.2-0.2,0.4-0.2C13.7,16.4,13.8,16.5,13.8,16.7z"/>
	<path class="st6" d="M16.8,17.9l-0.2,0.6c-0.3-0.1-0.6-0.1-0.9-0.1c-0.5,0-0.8,0.2-0.8,0.5c0,0.1,0,0.2,0.1,0.3s0.3,0.2,0.6,0.3
		c0.7,0.3,1,0.6,1,1.1c0,0.8-0.5,1.2-1.5,1.2c-0.4,0-0.8,0-1.1-0.1l0.2-0.6c0.3,0.1,0.6,0.2,1,0.2c0.6,0,0.9-0.2,0.9-0.5
		c0-0.2-0.2-0.5-0.7-0.7c-0.7-0.3-1-0.7-1-1.1c0-0.4,0.1-0.7,0.4-0.9s0.6-0.3,1-0.3C16.2,17.9,16.6,17.9,16.8,17.9z"/>
	<path class="st6" d="M24.7,19c0,0.3,0,0.7-0.1,1.3s-0.1,1-0.1,1.3l-0.7,0c0-0.2,0-0.6,0.1-1.2s0.1-1,0.1-1.3c0-0.3,0-0.5-0.1-0.7
		s-0.2-0.2-0.4-0.2c-0.3,0-0.6,0.2-0.8,0.5s-0.4,0.8-0.4,1.3c-0.1,0.6-0.1,1.1-0.1,1.5l-0.7,0c0-0.2,0-0.6,0.1-1.2s0.1-1.1,0.1-1.3
		c0-0.3,0-0.5-0.1-0.7s-0.2-0.2-0.4-0.2c-0.3,0-0.6,0.2-0.8,0.5s-0.4,0.8-0.4,1.2c-0.1,0.6-0.1,1.1-0.1,1.5l-0.6,0
		c0.2-1.3,0.3-2.3,0.3-2.7c0-0.3,0-0.6-0.1-1l0.7-0.1c0,0.3,0,0.6,0,0.9h0c0.3-0.6,0.7-0.9,1.3-0.9c0.3,0,0.5,0.1,0.7,0.3
		s0.2,0.4,0.2,0.7h0c0.3-0.6,0.8-0.9,1.4-0.9C24.4,17.8,24.7,18.2,24.7,19z"/>
	<path class="st6" d="M28.7,17.8c-0.2,1.3-0.4,2.3-0.4,2.9c0,0.3,0,0.6,0.1,1l-0.7,0.1c0-0.2,0-0.5,0-0.9h0
		c-0.3,0.6-0.8,0.9-1.3,0.9c-0.3,0-0.6-0.1-0.7-0.4s-0.2-0.6-0.2-1c0-0.7,0.2-1.2,0.7-1.7s1.1-0.7,2-0.7l0.2-0.1L28.7,17.8z
		 M27.9,18.4c-0.7,0-1.1,0.2-1.4,0.5S26,19.8,26,20.3c0,0.6,0.2,0.9,0.6,0.9c0.3,0,0.5-0.2,0.8-0.6s0.4-0.8,0.4-1.1
		S27.9,18.8,27.9,18.4z"/>
	<path class="st6" d="M32.9,19.4c0,0.7-0.2,1.3-0.5,1.7s-0.8,0.7-1.5,0.7c-0.4,0-0.7-0.1-0.9-0.3h0c-0.1,0.7-0.1,1.4-0.2,1.9l-0.7,0
		c0.3-2.4,0.5-3.9,0.5-4.6c0-0.2,0-0.5-0.1-0.9l0.7-0.1c0,0.2,0,0.5,0,0.9h0c0.3-0.6,0.8-0.9,1.4-0.9c0.4,0,0.7,0.1,0.9,0.4
		S32.9,18.9,32.9,19.4z M32.3,19.6c0-0.8-0.3-1.2-0.8-1.2c-0.3,0-0.6,0.2-0.8,0.5s-0.4,0.8-0.5,1.3l-0.1,0.9
		c0.3,0.2,0.5,0.2,0.7,0.2c0.5,0,0.9-0.2,1.1-0.5S32.3,20.1,32.3,19.6z"/>
	<path class="st6" d="M36.3,17.9c0,0.2,0,0.4-0.1,0.8s-0.1,0.7-0.2,1.2c0,0.4-0.1,1-0.1,1.8l-0.7,0c0.1-0.4,0.1-1,0.2-1.8
		c0.1-0.5,0.1-1,0.1-1.4c0-0.2,0-0.3,0-0.5L36.3,17.9z M36.6,16.7c0,0.2,0,0.3-0.1,0.4s-0.2,0.2-0.4,0.2c-0.2,0-0.4-0.1-0.4-0.4
		c0-0.2,0-0.3,0.1-0.4s0.2-0.2,0.4-0.2C36.5,16.4,36.6,16.5,36.6,16.7z"/>
	<path class="st6" d="M39.6,17.9l-0.2,0.6c-0.3-0.1-0.6-0.1-0.9-0.1c-0.5,0-0.8,0.2-0.8,0.5c0,0.1,0,0.2,0.1,0.3s0.3,0.2,0.6,0.3
		c0.7,0.3,1,0.6,1,1.1c0,0.8-0.5,1.2-1.5,1.2c-0.4,0-0.8,0-1.1-0.1l0.2-0.6c0.3,0.1,0.6,0.2,1,0.2c0.6,0,0.9-0.2,0.9-0.5
		c0-0.2-0.2-0.5-0.7-0.7c-0.7-0.3-1-0.7-1-1.1c0-0.4,0.1-0.7,0.4-0.9s0.6-0.3,1-0.3C39,17.9,39.4,17.9,39.6,17.9z"/>
	<path class="st6" d="M45.5,19.4c0,0.7-0.2,1.3-0.5,1.7s-0.8,0.7-1.5,0.7c-0.4,0-0.7-0.1-0.9-0.3h0l-0.1,0.2l-0.6,0
		c0-0.2,0.1-1.2,0.3-3c0.1-1,0.2-1.9,0.2-2.6l0.7,0c0,0.1,0,0.3-0.1,0.6c-0.1,0.5-0.1,1-0.2,1.5c0,0.1,0,0.3-0.1,0.5h0
		c0.3-0.6,0.8-0.9,1.4-0.9c0.4,0,0.7,0.1,0.9,0.4S45.5,18.9,45.5,19.4z M44.8,19.6c0-0.8-0.3-1.2-0.8-1.2c-0.3,0-0.6,0.2-0.8,0.5
		s-0.4,0.8-0.5,1.3l-0.1,0.9c0.3,0.2,0.5,0.2,0.7,0.2c0.5,0,0.9-0.2,1.1-0.5S44.8,20.1,44.8,19.6z"/>
	<path class="st6" d="M49.3,17.8c-0.2,1.3-0.4,2.3-0.4,2.9c0,0.3,0,0.6,0.1,1l-0.7,0.1c0-0.2,0-0.5,0-0.9h0
		c-0.3,0.6-0.8,0.9-1.3,0.9c-0.3,0-0.6-0.1-0.7-0.4s-0.2-0.6-0.2-1c0-0.7,0.2-1.2,0.7-1.7s1.1-0.7,2-0.7l0.2-0.1L49.3,17.8z
		 M48.6,18.4c-0.7,0-1.1,0.2-1.4,0.5s-0.5,0.8-0.5,1.4c0,0.6,0.2,0.9,0.6,0.9c0.3,0,0.5-0.2,0.8-0.6s0.4-0.8,0.4-1.1
		S48.6,18.8,48.6,18.4z"/>
	<path class="st6" d="M52.6,17.9l-0.2,0.6c-0.3-0.1-0.6-0.1-0.9-0.1c-0.5,0-0.8,0.2-0.8,0.5c0,0.1,0,0.2,0.1,0.3s0.3,0.2,0.6,0.3
		c0.7,0.3,1,0.6,1,1.1c0,0.8-0.5,1.2-1.5,1.2c-0.4,0-0.8,0-1.1-0.1l0.2-0.6c0.3,0.1,0.6,0.2,1,0.2c0.6,0,0.9-0.2,0.9-0.5
		c0-0.2-0.2-0.5-0.7-0.7c-0.7-0.3-1-0.7-1-1.1c0-0.4,0.1-0.7,0.4-0.9s0.6-0.3,1-0.3C52,17.9,52.3,17.9,52.6,17.9z"/>
	<path class="st6" d="M56.4,18.7c0,0.4-0.2,0.6-0.5,0.8c-0.4,0.2-1.1,0.4-2.1,0.4c0,0.5,0.1,0.8,0.2,1s0.4,0.3,0.8,0.3
		c0.4,0,0.8-0.1,1.2-0.4L56,21.4c-0.4,0.3-0.8,0.4-1.3,0.4c-0.5,0-0.9-0.2-1.2-0.5s-0.4-0.7-0.4-1.2c0-0.7,0.2-1.3,0.6-1.7
		s0.9-0.6,1.5-0.6c0.3,0,0.6,0.1,0.8,0.2S56.4,18.4,56.4,18.7z M55.8,18.7c0-0.1-0.1-0.2-0.2-0.3s-0.3-0.1-0.5-0.1
		c-0.3,0-0.5,0.1-0.8,0.3s-0.4,0.5-0.5,0.9c0.8,0,1.3-0.1,1.6-0.3C55.7,19.1,55.8,18.9,55.8,18.7z"/>
	<path class="st6" d="M60.8,16.2c0,0.1,0,0.3-0.1,0.8s-0.2,1.1-0.2,1.8s-0.1,1.3-0.1,1.9c0,0.4,0,0.7,0,1l-0.6,0.1
		c0-0.2-0.1-0.5-0.1-0.9h0c-0.3,0.6-0.8,0.9-1.4,0.9c-0.4,0-0.7-0.1-0.9-0.4S57,20.7,57,20.3c0-0.7,0.2-1.3,0.5-1.7s0.8-0.7,1.5-0.7
		c0.4,0,0.7,0.1,0.9,0.3h0c0.1-0.5,0.1-1.2,0.1-1.9L60.8,16.2z M59.8,18.6c-0.2-0.2-0.5-0.2-0.7-0.2c-0.5,0-0.9,0.2-1.1,0.5
		s-0.4,0.7-0.4,1.2c0,0.8,0.3,1.2,0.8,1.2c0.3,0,0.6-0.2,0.8-0.5s0.4-0.8,0.5-1.3L59.8,18.6z"/>
	<path class="st6" d="M66.5,19.5c0,0.6-0.2,1.2-0.6,1.6s-0.9,0.7-1.5,0.7c-0.4,0-0.8-0.2-1.1-0.5s-0.4-0.8-0.4-1.3
		c0-0.6,0.2-1.1,0.6-1.6s0.9-0.7,1.5-0.7c0.4,0,0.8,0.2,1.1,0.5S66.5,19,66.5,19.5z M65.8,19.6c0-0.4-0.1-0.7-0.2-0.9
		s-0.4-0.4-0.7-0.4c-0.4,0-0.7,0.2-0.9,0.5s-0.3,0.8-0.3,1.2c0,0.4,0.1,0.7,0.3,0.9s0.4,0.4,0.7,0.4c0.4,0,0.7-0.2,0.9-0.5
		S65.8,20,65.8,19.6z"/>
	<path class="st6" d="M70.5,19c0,0.2,0,0.6-0.1,1.3s-0.1,1.1-0.1,1.4l-0.7,0c0-0.1,0-0.5,0.1-1.1s0.1-1.1,0.1-1.4
		c0-0.3-0.1-0.5-0.2-0.6s-0.3-0.2-0.5-0.2c-0.3,0-0.6,0.2-0.8,0.6S68,19.7,68,20.2c-0.1,0.6-0.1,1.1-0.1,1.5l-0.6,0
		c0.2-1.3,0.3-2.3,0.3-2.7c0-0.3,0-0.6-0.1-1l0.7-0.1c0,0.2,0,0.5,0,0.9h0c0.3-0.6,0.8-0.9,1.4-0.9C70.2,17.8,70.5,18.2,70.5,19z"/>
	<path class="st6" d="M76.8,16.2c0,0.1,0,0.3-0.1,0.8s-0.2,1.1-0.2,1.8s-0.1,1.3-0.1,1.9c0,0.4,0,0.7,0,1l-0.6,0.1
		c0-0.2-0.1-0.5-0.1-0.9h0c-0.3,0.6-0.8,0.9-1.4,0.9c-0.4,0-0.7-0.1-0.9-0.4S73,20.7,73,20.3c0-0.7,0.2-1.3,0.5-1.7s0.8-0.7,1.5-0.7
		c0.4,0,0.7,0.1,0.9,0.3h0c0.1-0.5,0.1-1.2,0.1-1.9L76.8,16.2z M75.9,18.6c-0.2-0.2-0.5-0.2-0.7-0.2c-0.5,0-0.9,0.2-1.1,0.5
		s-0.4,0.7-0.4,1.2c0,0.8,0.3,1.2,0.8,1.2c0.3,0,0.6-0.2,0.8-0.5s0.4-0.8,0.5-1.3L75.9,18.6z"/>
	<path class="st6" d="M80.4,17.8c-0.2,1.3-0.4,2.3-0.4,2.9c0,0.3,0,0.6,0.1,1l-0.7,0.1c0-0.2,0-0.5,0-0.9h0
		c-0.3,0.6-0.8,0.9-1.3,0.9c-0.3,0-0.6-0.1-0.7-0.4s-0.2-0.6-0.2-1c0-0.7,0.2-1.2,0.7-1.7s1.1-0.7,2-0.7l0.2-0.1L80.4,17.8z
		 M79.7,18.4c-0.7,0-1.1,0.2-1.4,0.5s-0.5,0.8-0.5,1.4c0,0.6,0.2,0.9,0.6,0.9c0.3,0,0.5-0.2,0.8-0.6s0.4-0.8,0.4-1.1
		S79.7,18.8,79.7,18.4z"/>
	<path class="st6" d="M83.4,21l-0.1,0.5c-0.3,0.2-0.6,0.3-0.8,0.3c-0.4,0-0.6-0.1-0.7-0.3s-0.2-0.5-0.2-0.8c0-0.3,0.1-1,0.2-2.1
		c-0.1,0-0.4,0-0.6,0l0.1-0.6c0.2,0,0.5,0,0.6,0c0-0.1,0.1-0.5,0.2-1.1l0.6-0.1c0,0.3-0.1,0.7-0.2,1.2c0.2,0,0.6,0,1,0l-0.1,0.6
		c-0.4,0-0.8,0-1.1,0c-0.1,0.9-0.2,1.5-0.2,1.9c0,0.3,0,0.5,0.1,0.6s0.2,0.2,0.4,0.2C82.9,21.2,83.1,21.1,83.4,21z"/>
	<path class="st6" d="M87.2,17.8c-0.2,1.3-0.4,2.3-0.4,2.9c0,0.3,0,0.6,0.1,1l-0.7,0.1c0-0.2,0-0.5,0-0.9h0
		c-0.3,0.6-0.8,0.9-1.3,0.9c-0.3,0-0.6-0.1-0.7-0.4s-0.2-0.6-0.2-1c0-0.7,0.2-1.2,0.7-1.7s1.1-0.7,2-0.7l0.2-0.1L87.2,17.8z
		 M86.5,18.4c-0.7,0-1.1,0.2-1.4,0.5s-0.5,0.8-0.5,1.4c0,0.6,0.2,0.9,0.6,0.9c0.3,0,0.5-0.2,0.8-0.6s0.4-0.8,0.4-1.1
		S86.5,18.8,86.5,18.4z"/>
	<path class="st6" d="M92.2,16.1l-0.1,0.5c-0.1,0-0.3,0-0.4,0c-0.2,0-0.4,0.1-0.5,0.3S91,17.5,90.9,18c0.2,0,0.6,0,1,0l-0.1,0.6
		c-0.5,0-0.8,0-1,0c-0.1,1-0.1,1.8-0.2,2.7s-0.2,1.4-0.4,1.6s-0.5,0.5-0.8,0.5l-0.2-0.3c0.2-0.2,0.4-0.4,0.5-0.7s0.2-0.7,0.3-1.5
		s0.1-1.5,0.2-2.4c-0.2,0-0.4,0-0.8,0l0.1-0.6c0.3,0,0.6,0,0.8,0c0.1-0.7,0.2-1.2,0.4-1.5s0.5-0.5,1-0.5
		C91.9,16.1,92,16.1,92.2,16.1z"/>
	<path class="st6" d="M94.9,17.9l-0.2,0.6c-0.2-0.1-0.4-0.1-0.5-0.1c-0.6,0-0.9,0.3-1,0.9c-0.1,0.9-0.2,1.7-0.2,2.3l-0.6,0
		c0.2-1.3,0.3-2.3,0.3-2.7c0-0.3,0-0.6-0.1-1l0.7-0.1c0,0.2,0,0.4,0,0.6h0c0.3-0.4,0.6-0.6,1-0.6C94.4,17.8,94.6,17.9,94.9,17.9z"/>
	<path class="st6" d="M98.7,19.5c0,0.6-0.2,1.2-0.6,1.6s-0.9,0.7-1.5,0.7c-0.4,0-0.8-0.2-1.1-0.5s-0.4-0.8-0.4-1.3
		c0-0.6,0.2-1.1,0.6-1.6s0.9-0.7,1.5-0.7c0.4,0,0.8,0.2,1.1,0.5S98.7,19,98.7,19.5z M98,19.6c0-0.4-0.1-0.7-0.2-0.9
		s-0.4-0.4-0.7-0.4c-0.4,0-0.7,0.2-0.9,0.5s-0.3,0.8-0.3,1.2c0,0.4,0.1,0.7,0.3,0.9s0.4,0.4,0.7,0.4c0.4,0,0.7-0.2,0.9-0.5
		S98,20,98,19.6z"/>
	<path class="st6" d="M105,19c0,0.3,0,0.7-0.1,1.3s-0.1,1-0.1,1.3l-0.7,0c0-0.2,0-0.6,0.1-1.2s0.1-1,0.1-1.3c0-0.3,0-0.5-0.1-0.7
		s-0.2-0.2-0.4-0.2c-0.3,0-0.6,0.2-0.8,0.5s-0.4,0.8-0.4,1.3c-0.1,0.6-0.1,1.1-0.1,1.5l-0.7,0c0-0.2,0-0.6,0.1-1.2s0.1-1.1,0.1-1.3
		c0-0.3,0-0.5-0.1-0.7s-0.2-0.2-0.4-0.2c-0.3,0-0.6,0.2-0.8,0.5s-0.4,0.8-0.4,1.2c-0.1,0.6-0.1,1.1-0.1,1.5l-0.6,0
		c0.2-1.3,0.3-2.3,0.3-2.7c0-0.3,0-0.6-0.1-1l0.7-0.1c0,0.3,0,0.6,0,0.9h0c0.3-0.6,0.7-0.9,1.3-0.9c0.3,0,0.5,0.1,0.7,0.3
		s0.2,0.4,0.2,0.7h0c0.3-0.6,0.8-0.9,1.4-0.9C104.7,17.8,105,18.2,105,19z"/>
	<path class="st6" d="M110.8,19c0,0.2,0,0.6-0.1,1.3s-0.1,1.1-0.1,1.4l-0.7,0c0-0.1,0-0.5,0.1-1.1s0.1-1.1,0.1-1.4
		c0-0.3-0.1-0.5-0.2-0.6s-0.3-0.2-0.5-0.2c-0.3,0-0.6,0.2-0.8,0.6s-0.4,0.8-0.5,1.2c-0.1,0.6-0.1,1.1-0.1,1.5l-0.7,0
		c0-0.2,0.1-1.2,0.3-3c0.1-1,0.2-1.9,0.2-2.6l0.7,0c0,0.1,0,0.3-0.1,0.6c-0.1,0.5-0.1,1-0.2,1.5c0,0.1,0,0.3-0.1,0.5h0
		c0.3-0.6,0.8-0.9,1.4-0.9C110.5,17.8,110.8,18.2,110.8,19z"/>
	<path class="st6" d="M115.4,16.2c0,0.1,0,0.3-0.1,0.8s-0.2,1.1-0.2,1.8s-0.1,1.3-0.1,1.9c0,0.4,0,0.7,0,1l-0.6,0.1
		c0-0.2-0.1-0.5-0.1-0.9h0c-0.3,0.6-0.8,0.9-1.4,0.9c-0.4,0-0.7-0.1-0.9-0.4s-0.3-0.6-0.3-1.1c0-0.7,0.2-1.3,0.5-1.7
		s0.8-0.7,1.5-0.7c0.4,0,0.7,0.1,0.9,0.3h0c0.1-0.5,0.1-1.2,0.1-1.9L115.4,16.2z M114.5,18.6c-0.2-0.2-0.5-0.2-0.7-0.2
		c-0.5,0-0.9,0.2-1.1,0.5s-0.4,0.7-0.4,1.2c0,0.8,0.3,1.2,0.8,1.2c0.3,0,0.6-0.2,0.8-0.5s0.4-0.8,0.5-1.3L114.5,18.6z"/>
	<path class="st6" d="M117,17.9c0,0.2,0,0.4-0.1,0.8s-0.1,0.7-0.2,1.2c0,0.4-0.1,1-0.1,1.8l-0.7,0c0.1-0.4,0.1-1,0.2-1.8
		c0.1-0.5,0.1-1,0.1-1.4c0-0.2,0-0.3,0-0.5L117,17.9z M117.3,16.7c0,0.2,0,0.3-0.1,0.4s-0.2,0.2-0.4,0.2c-0.2,0-0.4-0.1-0.4-0.4
		c0-0.2,0-0.3,0.1-0.4s0.2-0.2,0.4-0.2C117.2,16.4,117.3,16.5,117.3,16.7z"/>
	<path class="st6" d="M118.7,21c0,0.2-0.1,0.3-0.2,0.5s-0.3,0.2-0.4,0.2c-0.3,0-0.4-0.1-0.4-0.4c0-0.2,0.1-0.3,0.2-0.5
		s0.3-0.2,0.4-0.2C118.5,20.6,118.7,20.7,118.7,21z"/>
	<path class="st6" d="M123.6,17.5l-0.1,0.5c-0.4,0-0.7,0.1-0.8,0.2l0,0c0.1,0.2,0.2,0.4,0.2,0.6c0,0.5-0.2,0.8-0.5,1.1
		s-0.7,0.4-1.2,0.4c-0.3,0-0.5,0-0.6-0.1c-0.2,0.1-0.2,0.3-0.2,0.4c0,0.1,0.1,0.2,0.2,0.3s0.6,0.1,1.4,0.1c0.7,0,1.1,0.3,1.1,0.8
		c0,0.5-0.2,1-0.7,1.3s-0.9,0.5-1.5,0.5c-0.5,0-0.9-0.1-1.2-0.3s-0.3-0.5-0.3-0.8c0-0.5,0.3-0.8,0.8-1.1l0,0
		c-0.2-0.1-0.2-0.2-0.2-0.5c0-0.3,0.1-0.5,0.4-0.8l0,0c-0.1-0.1-0.2-0.2-0.3-0.3s-0.2-0.4-0.2-0.6c0-0.5,0.2-0.8,0.5-1.1
		s0.7-0.4,1.2-0.4c0.4,0,0.7,0.1,1,0.3h0c0.1-0.3,0.2-0.4,0.3-0.5s0.2-0.2,0.4-0.2C123.4,17.4,123.5,17.4,123.6,17.5z M122.4,22.2
		c0-0.2-0.1-0.3-0.2-0.4s-0.5-0.1-1-0.1c-0.2,0-0.5,0-0.8,0c-0.4,0.2-0.5,0.4-0.5,0.8c0,0.5,0.3,0.8,1,0.8c0.4,0,0.8-0.1,1.1-0.3
		S122.4,22.5,122.4,22.2z M122.3,19c0-0.2-0.1-0.4-0.2-0.6c-0.1-0.1-0.3-0.2-0.6-0.2c-0.3,0-0.5,0.1-0.7,0.3s-0.3,0.4-0.3,0.7
		c0,0.2,0.1,0.4,0.2,0.6s0.4,0.2,0.6,0.2c0.3,0,0.5-0.1,0.7-0.3S122.3,19.3,122.3,19z"/>
	<path class="st6" d="M125.1,16.1c0,0.2,0,0.5-0.1,1s-0.1,1.1-0.2,1.6c-0.1,1.2-0.2,2.2-0.2,2.9l-0.7,0.1c0-0.1,0-0.5,0.1-1
		s0.2-1.2,0.2-1.9c0.1-1.1,0.2-1.9,0.2-2.6L125.1,16.1z"/>
	<path class="st6" d="M129.2,19.5c0,0.6-0.2,1.2-0.6,1.6s-0.9,0.7-1.5,0.7c-0.4,0-0.8-0.2-1.1-0.5s-0.4-0.8-0.4-1.3
		c0-0.6,0.2-1.1,0.6-1.6s0.9-0.7,1.5-0.7c0.4,0,0.8,0.2,1.1,0.5S129.2,19,129.2,19.5z M128.6,19.6c0-0.4-0.1-0.7-0.2-0.9
		s-0.4-0.4-0.7-0.4c-0.4,0-0.7,0.2-0.9,0.5s-0.3,0.8-0.3,1.2c0,0.4,0.1,0.7,0.3,0.9s0.4,0.4,0.7,0.4c0.4,0,0.7-0.2,0.9-0.5
		S128.6,20,128.6,19.6z"/>
	<path class="st6" d="M133.6,19.4c0,0.7-0.2,1.3-0.5,1.7s-0.8,0.7-1.5,0.7c-0.4,0-0.7-0.1-0.9-0.3h0l-0.1,0.2l-0.6,0
		c0-0.2,0.1-1.2,0.3-3c0.1-1,0.2-1.9,0.2-2.6l0.7,0c0,0.1,0,0.3-0.1,0.6c-0.1,0.5-0.1,1-0.2,1.5c0,0.1,0,0.3-0.1,0.5h0
		c0.3-0.6,0.8-0.9,1.4-0.9c0.4,0,0.7,0.1,0.9,0.4S133.6,18.9,133.6,19.4z M132.9,19.6c0-0.8-0.3-1.2-0.8-1.2c-0.3,0-0.6,0.2-0.8,0.5
		s-0.4,0.8-0.5,1.3l-0.1,0.9c0.3,0.2,0.5,0.2,0.7,0.2c0.5,0,0.9-0.2,1.1-0.5S132.9,20.1,132.9,19.6z"/>
	<path class="st6" d="M137.4,17.8c-0.2,1.3-0.4,2.3-0.4,2.9c0,0.3,0,0.6,0.1,1l-0.7,0.1c0-0.2,0-0.5,0-0.9h0
		c-0.3,0.6-0.8,0.9-1.3,0.9c-0.3,0-0.6-0.1-0.7-0.4s-0.2-0.6-0.2-1c0-0.7,0.2-1.2,0.7-1.7s1.1-0.7,2-0.7l0.2-0.1L137.4,17.8z
		 M136.7,18.4c-0.7,0-1.1,0.2-1.4,0.5s-0.5,0.8-0.5,1.4c0,0.6,0.2,0.9,0.6,0.9c0.3,0,0.5-0.2,0.8-0.6s0.4-0.8,0.4-1.1
		S136.7,18.8,136.7,18.4z"/>
	<path class="st6" d="M139.4,16.1c0,0.2,0,0.5-0.1,1s-0.1,1.1-0.2,1.6c-0.1,1.2-0.2,2.2-0.2,2.9l-0.7,0.1c0-0.1,0-0.5,0.1-1
		s0.2-1.2,0.2-1.9c0.1-1.1,0.2-1.9,0.2-2.6L139.4,16.1z"/>
	<path class="st6" d="M143.7,16.2c0,0.1,0,0.3-0.1,0.8s-0.2,1.1-0.2,1.8s-0.1,1.3-0.1,1.9c0,0.4,0,0.7,0,1l-0.6,0.1
		c0-0.2-0.1-0.5-0.1-0.9h0c-0.3,0.6-0.8,0.9-1.4,0.9c-0.4,0-0.7-0.1-0.9-0.4s-0.3-0.6-0.3-1.1c0-0.7,0.2-1.3,0.5-1.7
		s0.8-0.7,1.5-0.7c0.4,0,0.7,0.1,0.9,0.3h0c0.1-0.5,0.1-1.2,0.1-1.9L143.7,16.2z M142.8,18.6c-0.2-0.2-0.5-0.2-0.7-0.2
		c-0.5,0-0.9,0.2-1.1,0.5s-0.4,0.7-0.4,1.2c0,0.8,0.3,1.2,0.8,1.2c0.3,0,0.6-0.2,0.8-0.5s0.4-0.8,0.5-1.3L142.8,18.6z"/>
	<path class="st6" d="M147.4,17.8c-0.2,1.3-0.4,2.3-0.4,2.9c0,0.3,0,0.6,0.1,1l-0.7,0.1c0-0.2,0-0.5,0-0.9h0
		c-0.3,0.6-0.8,0.9-1.3,0.9c-0.3,0-0.6-0.1-0.7-0.4s-0.2-0.6-0.2-1c0-0.7,0.2-1.2,0.7-1.7s1.1-0.7,2-0.7l0.2-0.1L147.4,17.8z
		 M146.7,18.4c-0.7,0-1.1,0.2-1.4,0.5s-0.5,0.8-0.5,1.4c0,0.6,0.2,0.9,0.6,0.9c0.3,0,0.5-0.2,0.8-0.6s0.4-0.8,0.4-1.1
		S146.6,18.8,146.7,18.4z"/>
	<path class="st6" d="M150.3,21l-0.1,0.5c-0.3,0.2-0.6,0.3-0.8,0.3c-0.4,0-0.6-0.1-0.7-0.3s-0.2-0.5-0.2-0.8c0-0.3,0.1-1,0.2-2.1
		c-0.1,0-0.4,0-0.6,0l0.1-0.6c0.2,0,0.5,0,0.6,0c0-0.1,0.1-0.5,0.2-1.1l0.6-0.1c0,0.3-0.1,0.7-0.2,1.2c0.2,0,0.6,0,1,0l-0.1,0.6
		c-0.4,0-0.8,0-1.1,0c-0.1,0.9-0.2,1.5-0.2,1.9c0,0.3,0,0.5,0.1,0.6s0.2,0.2,0.4,0.2C149.8,21.2,150.1,21.1,150.3,21z"/>
	<path class="st6" d="M154.2,17.8c-0.2,1.3-0.4,2.3-0.4,2.9c0,0.3,0,0.6,0.1,1l-0.7,0.1c0-0.2,0-0.5,0-0.9h0
		c-0.3,0.6-0.8,0.9-1.3,0.9c-0.3,0-0.6-0.1-0.7-0.4s-0.2-0.6-0.2-1c0-0.7,0.2-1.2,0.7-1.7s1.1-0.7,2-0.7l0.2-0.1L154.2,17.8z
		 M153.5,18.4c-0.7,0-1.1,0.2-1.4,0.5s-0.5,0.8-0.5,1.4c0,0.6,0.2,0.9,0.6,0.9c0.3,0,0.5-0.2,0.8-0.6s0.4-0.8,0.4-1.1
		S153.4,18.8,153.5,18.4z"/>
	<path class="st6" d="M156.1,16.1c0,0.2,0,0.5-0.1,1s-0.1,1.1-0.2,1.6c-0.1,1.2-0.2,2.2-0.2,2.9l-0.7,0.1c0-0.1,0-0.5,0.1-1
		s0.2-1.2,0.2-1.9c0.1-1.1,0.2-1.9,0.2-2.6L156.1,16.1z"/>
	<path class="st6" d="M159.8,17.8c-0.2,1.3-0.4,2.3-0.4,2.9c0,0.3,0,0.6,0.1,1l-0.7,0.1c0-0.2,0-0.5,0-0.9h0
		c-0.3,0.6-0.8,0.9-1.3,0.9c-0.3,0-0.6-0.1-0.7-0.4s-0.2-0.6-0.2-1c0-0.7,0.2-1.2,0.7-1.7s1.1-0.7,2-0.7l0.2-0.1L159.8,17.8z
		 M159.1,18.4c-0.7,0-1.1,0.2-1.4,0.5s-0.5,0.8-0.5,1.4c0,0.6,0.2,0.9,0.6,0.9c0.3,0,0.5-0.2,0.8-0.6s0.4-0.8,0.4-1.1
		S159.1,18.8,159.1,18.4z"/>
	<path class="st6" d="M164.1,19.4c0,0.7-0.2,1.3-0.5,1.7s-0.8,0.7-1.5,0.7c-0.4,0-0.7-0.1-0.9-0.3h0l-0.1,0.2l-0.6,0
		c0-0.2,0.1-1.2,0.3-3c0.1-1,0.2-1.9,0.2-2.6l0.7,0c0,0.1,0,0.3-0.1,0.6c-0.1,0.5-0.1,1-0.2,1.5c0,0.1,0,0.3-0.1,0.5h0
		c0.3-0.6,0.8-0.9,1.4-0.9c0.4,0,0.7,0.1,0.9,0.4S164.1,18.9,164.1,19.4z M163.5,19.6c0-0.8-0.3-1.2-0.8-1.2c-0.3,0-0.6,0.2-0.8,0.5
		s-0.4,0.8-0.5,1.3l-0.1,0.9c0.3,0.2,0.5,0.2,0.7,0.2c0.5,0,0.9-0.2,1.1-0.5S163.5,20.1,163.5,19.6z"/>
	<path class="st6" d="M165.7,21c0,0.2-0.1,0.3-0.2,0.5s-0.3,0.2-0.4,0.2c-0.3,0-0.4-0.1-0.4-0.4c0-0.2,0.1-0.3,0.2-0.5
		s0.3-0.2,0.4-0.2C165.6,20.6,165.7,20.7,165.7,21z"/>
	<path class="st6" d="M170.4,19.5c0,0.6-0.2,1.2-0.6,1.6s-0.9,0.7-1.5,0.7c-0.4,0-0.8-0.2-1.1-0.5s-0.4-0.8-0.4-1.3
		c0-0.6,0.2-1.1,0.6-1.6s0.9-0.7,1.5-0.7c0.4,0,0.8,0.2,1.1,0.5S170.4,19,170.4,19.5z M169.7,19.6c0-0.4-0.1-0.7-0.2-0.9
		s-0.4-0.4-0.7-0.4c-0.4,0-0.7,0.2-0.9,0.5s-0.3,0.8-0.3,1.2c0,0.4,0.1,0.7,0.3,0.9s0.4,0.4,0.7,0.4c0.4,0,0.7-0.2,0.9-0.5
		S169.7,20,169.7,19.6z"/>
	<path class="st6" d="M173.7,17.9l-0.2,0.6c-0.2-0.1-0.4-0.1-0.5-0.1c-0.6,0-0.9,0.3-1,0.9c-0.1,0.9-0.2,1.7-0.2,2.3l-0.6,0
		c0.2-1.3,0.3-2.3,0.3-2.7c0-0.3,0-0.6-0.1-1l0.7-0.1c0,0.2,0,0.4,0,0.6h0c0.3-0.4,0.6-0.6,1-0.6C173.2,17.8,173.5,17.9,173.7,17.9z
		"/>
	<path class="st6" d="M177.8,17.5l-0.1,0.5c-0.4,0-0.7,0.1-0.8,0.2l0,0c0.1,0.2,0.2,0.4,0.2,0.6c0,0.5-0.2,0.8-0.5,1.1
		s-0.7,0.4-1.2,0.4c-0.3,0-0.5,0-0.6-0.1c-0.2,0.1-0.2,0.3-0.2,0.4c0,0.1,0.1,0.2,0.2,0.3s0.6,0.1,1.4,0.1c0.7,0,1.1,0.3,1.1,0.8
		c0,0.5-0.2,1-0.7,1.3s-0.9,0.5-1.5,0.5c-0.5,0-0.9-0.1-1.2-0.3s-0.3-0.5-0.3-0.8c0-0.5,0.3-0.8,0.8-1.1l0,0
		c-0.2-0.1-0.2-0.2-0.2-0.5c0-0.3,0.1-0.5,0.4-0.8l0,0c-0.1-0.1-0.2-0.2-0.3-0.3s-0.2-0.4-0.2-0.6c0-0.5,0.2-0.8,0.5-1.1
		s0.7-0.4,1.2-0.4c0.4,0,0.7,0.1,1,0.3h0c0.1-0.3,0.2-0.4,0.3-0.5s0.2-0.2,0.4-0.2C177.6,17.4,177.7,17.4,177.8,17.5z M176.6,22.2
		c0-0.2-0.1-0.3-0.2-0.4s-0.5-0.1-1-0.1c-0.2,0-0.5,0-0.8,0c-0.4,0.2-0.5,0.4-0.5,0.8c0,0.5,0.3,0.8,1,0.8c0.4,0,0.8-0.1,1.1-0.3
		S176.6,22.5,176.6,22.2z M176.5,19c0-0.2-0.1-0.4-0.2-0.6c-0.1-0.1-0.3-0.2-0.6-0.2c-0.3,0-0.5,0.1-0.7,0.3s-0.3,0.4-0.3,0.7
		c0,0.2,0.1,0.4,0.2,0.6s0.4,0.2,0.6,0.2c0.3,0,0.5-0.1,0.7-0.3S176.5,19.3,176.5,19z"/>
	<path class="st6" d="M7.8,33.4L7.7,34c-0.3-0.1-0.5-0.1-0.7-0.1c-0.6,0-1.1,0.2-1.5,0.7s-0.6,1-0.6,1.6c0,0.5,0.2,1,0.5,1.3
		S6.1,38,6.7,38c0.2,0,0.6-0.1,1-0.2l-0.1,0.6c-0.4,0.1-0.8,0.1-1,0.1c-0.8,0-1.4-0.2-1.7-0.7s-0.6-1-0.6-1.6c0-0.8,0.3-1.5,0.8-2.1
		s1.3-0.8,2.1-0.8C7.4,33.3,7.6,33.4,7.8,33.4z"/>
	<path class="st6" d="M11.8,36.3c0,0.6-0.2,1.2-0.6,1.6s-0.9,0.7-1.5,0.7c-0.4,0-0.8-0.2-1.1-0.5s-0.4-0.8-0.4-1.3
		c0-0.6,0.2-1.1,0.6-1.6s0.9-0.7,1.5-0.7c0.4,0,0.8,0.2,1.1,0.5S11.8,35.8,11.8,36.3z M11.1,36.4c0-0.4-0.1-0.7-0.2-0.9
		s-0.4-0.4-0.7-0.4c-0.4,0-0.7,0.2-0.9,0.5s-0.3,0.8-0.3,1.2c0,0.4,0.1,0.7,0.3,0.9s0.4,0.4,0.7,0.4c0.4,0,0.7-0.2,0.9-0.5
		S11.1,36.8,11.1,36.4z"/>
	<path class="st6" d="M15.9,34.7c-0.2,1.4-0.3,2.4-0.3,2.9c0,0.3,0,0.6,0.1,0.9L15,38.5c0-0.2,0-0.5,0-0.9h0
		c-0.3,0.6-0.8,0.9-1.4,0.9c-0.7,0-1-0.4-1-1.2c0-0.2,0-0.6,0.1-1.3s0.1-1.1,0.1-1.4l0.7-0.1c0,0.1,0,0.5-0.1,1.1s-0.1,1.1-0.1,1.4
		c0,0.3,0.1,0.5,0.2,0.6s0.3,0.2,0.5,0.2c0.3,0,0.6-0.2,0.8-0.6s0.4-0.8,0.5-1.2c0.1-0.6,0.1-1.1,0.1-1.5L15.9,34.7z"/>
	<path class="st6" d="M20,35.8c0,0.2,0,0.6-0.1,1.3s-0.1,1.1-0.1,1.4l-0.7,0c0-0.1,0-0.5,0.1-1.1s0.1-1.1,0.1-1.4
		c0-0.3-0.1-0.5-0.2-0.6s-0.3-0.2-0.5-0.2c-0.3,0-0.6,0.2-0.8,0.6s-0.4,0.8-0.5,1.2c-0.1,0.6-0.1,1.1-0.1,1.5l-0.6,0
		c0.2-1.3,0.3-2.3,0.3-2.7c0-0.3,0-0.6-0.1-1l0.7-0.1c0,0.2,0,0.5,0,0.9h0c0.3-0.6,0.8-0.9,1.4-0.9C19.7,34.6,20,35,20,35.8z"/>
	<path class="st6" d="M23.1,37.8L23,38.3c-0.3,0.2-0.6,0.3-0.8,0.3c-0.4,0-0.6-0.1-0.7-0.3s-0.2-0.5-0.2-0.8c0-0.3,0.1-1,0.2-2.1
		c-0.1,0-0.4,0-0.6,0l0.1-0.6c0.2,0,0.5,0,0.6,0c0-0.1,0.1-0.5,0.2-1.1l0.6-0.1c0,0.3-0.1,0.7-0.2,1.2c0.2,0,0.6,0,1,0L23,35.4
		c-0.4,0-0.8,0-1.1,0c-0.1,0.9-0.2,1.5-0.2,1.9c0,0.3,0,0.5,0.1,0.6s0.2,0.2,0.4,0.2C22.5,38,22.8,37.9,23.1,37.8z"/>
	<path class="st6" d="M26.4,34.7l-0.2,0.6c-0.2-0.1-0.4-0.1-0.5-0.1c-0.6,0-0.9,0.3-1,0.9c-0.1,0.9-0.2,1.7-0.2,2.3l-0.6,0
		c0.2-1.3,0.3-2.3,0.3-2.7c0-0.3,0-0.6-0.1-1l0.7-0.1c0,0.2,0,0.4,0,0.6h0c0.3-0.4,0.6-0.6,1-0.6C25.9,34.6,26.1,34.7,26.4,34.7z"/>
	<path class="st6" d="M29.9,34.7c0,0.3-0.3,1-0.8,2s-0.9,1.6-0.9,1.8c-0.2,0.7-0.5,1.1-0.7,1.3c-0.2,0.3-0.6,0.4-1.1,0.4l0-0.5
		c0.3,0,0.6-0.1,0.9-0.4s0.4-0.5,0.4-0.9c0-0.4-0.2-1-0.5-1.9s-0.5-1.5-0.5-1.7l0.8,0c0,0.3,0.1,0.9,0.3,1.6s0.3,1.2,0.3,1.5h0
		c0-0.1,0.2-0.6,0.6-1.4s0.5-1.3,0.5-1.7L29.9,34.7z"/>
	<path class="st6" d="M31.2,37.8c0,0.2-0.1,0.3-0.2,0.5s-0.3,0.2-0.4,0.2c-0.3,0-0.4-0.1-0.4-0.4c0-0.2,0.1-0.3,0.2-0.5
		s0.3-0.2,0.4-0.2C31.1,37.4,31.2,37.5,31.2,37.8z M31.5,35.2c0,0.2-0.1,0.3-0.2,0.5s-0.3,0.2-0.4,0.2c-0.3,0-0.4-0.1-0.4-0.4
		c0-0.2,0.1-0.3,0.2-0.5s0.3-0.2,0.4-0.2C31.3,34.7,31.5,34.9,31.5,35.2z"/>
	<path class="st6" d="M38.1,38.5h-0.8c0-0.3-0.1-0.8-0.3-1.6h-2.1c-0.1,0.2-0.2,0.5-0.3,0.7c-0.2,0.5-0.3,0.8-0.3,1h-0.8
		c0-0.1,0.4-0.9,1.2-2.5c0.8-1.6,1.2-2.4,1.2-2.6h0.9c0,0.2,0.2,1.1,0.6,2.6S38.1,38.3,38.1,38.5z M36.9,36.3
		c-0.4-1.5-0.6-2.3-0.6-2.4h0c0,0.1-0.4,0.9-1.2,2.4H36.9z"/>
	<path class="st6" d="M42.2,34.7c-0.2,1.4-0.3,2.4-0.3,2.9c0,0.3,0,0.6,0.1,0.9l-0.7,0.1c0-0.2,0-0.5,0-0.9h0
		c-0.3,0.6-0.8,0.9-1.4,0.9c-0.7,0-1-0.4-1-1.2c0-0.2,0-0.6,0.1-1.3s0.1-1.1,0.1-1.4l0.7-0.1c0,0.1,0,0.5-0.1,1.1s-0.1,1.1-0.1,1.4
		c0,0.3,0.1,0.5,0.2,0.6S40,38,40.2,38c0.3,0,0.6-0.2,0.8-0.6s0.4-0.8,0.5-1.2c0.1-0.6,0.1-1.1,0.1-1.5L42.2,34.7z"/>
	<path class="st6" d="M45.5,34.7l-0.2,0.6c-0.3-0.1-0.6-0.1-0.9-0.1c-0.5,0-0.8,0.2-0.8,0.5c0,0.1,0,0.2,0.1,0.3s0.3,0.2,0.6,0.3
		c0.7,0.3,1,0.6,1,1.1c0,0.8-0.5,1.2-1.5,1.2c-0.4,0-0.8,0-1.1-0.1l0.2-0.6c0.3,0.1,0.6,0.2,1,0.2c0.6,0,0.9-0.2,0.9-0.5
		c0-0.2-0.2-0.5-0.7-0.7c-0.7-0.3-1-0.7-1-1.1c0-0.4,0.1-0.7,0.4-0.9s0.6-0.3,1-0.3C44.9,34.7,45.3,34.7,45.5,34.7z"/>
	<path class="st6" d="M48.4,37.8l-0.1,0.5c-0.3,0.2-0.6,0.3-0.8,0.3c-0.4,0-0.6-0.1-0.7-0.3s-0.2-0.5-0.2-0.8c0-0.3,0.1-1,0.2-2.1
		c-0.1,0-0.4,0-0.6,0l0.1-0.6c0.2,0,0.5,0,0.6,0c0-0.1,0.1-0.5,0.2-1.1l0.6-0.1c0,0.3-0.1,0.7-0.2,1.2c0.2,0,0.6,0,1,0l-0.1,0.6
		c-0.4,0-0.8,0-1.1,0c-0.1,0.9-0.2,1.5-0.2,1.9c0,0.3,0,0.5,0.1,0.6s0.2,0.2,0.4,0.2C47.9,38,48.1,37.9,48.4,37.8z"/>
	<path class="st6" d="M51.7,34.7l-0.2,0.6c-0.2-0.1-0.4-0.1-0.5-0.1c-0.6,0-0.9,0.3-1,0.9c-0.1,0.9-0.2,1.7-0.2,2.3l-0.6,0
		c0.2-1.3,0.3-2.3,0.3-2.7c0-0.3,0-0.6-0.1-1l0.7-0.1c0,0.2,0,0.4,0,0.6h0c0.3-0.4,0.6-0.6,1-0.6C51.2,34.6,51.5,34.7,51.7,34.7z"/>
	<path class="st6" d="M53,34.7c0,0.2,0,0.4-0.1,0.8s-0.1,0.7-0.2,1.2c0,0.4-0.1,1-0.1,1.8l-0.7,0c0.1-0.4,0.1-1,0.2-1.8
		c0.1-0.5,0.1-1,0.1-1.4c0-0.2,0-0.3,0-0.5L53,34.7z M53.3,33.5c0,0.2,0,0.3-0.1,0.4s-0.2,0.2-0.4,0.2c-0.2,0-0.4-0.1-0.4-0.4
		c0-0.2,0-0.3,0.1-0.4s0.2-0.2,0.4-0.2C53.2,33.2,53.3,33.3,53.3,33.5z"/>
	<path class="st6" d="M57,34.6c-0.2,1.3-0.4,2.3-0.4,2.9c0,0.3,0,0.6,0.1,1L56,38.5c0-0.2,0-0.5,0-0.9h0c-0.3,0.6-0.8,0.9-1.3,0.9
		c-0.3,0-0.6-0.1-0.7-0.4s-0.2-0.6-0.2-1c0-0.7,0.2-1.2,0.7-1.7s1.1-0.7,2-0.7l0.2-0.1L57,34.6z M56.2,35.2c-0.7,0-1.1,0.2-1.4,0.5
		s-0.5,0.8-0.5,1.4c0,0.6,0.2,0.9,0.6,0.9c0.3,0,0.5-0.2,0.8-0.6s0.4-0.8,0.4-1.1S56.2,35.6,56.2,35.2z"/>
	<path class="st6" d="M9.5,48.1H8.8c0-1.4,0.1-2.9,0.2-4.5h0c0,0.1-0.1,0.3-0.3,0.7s-0.5,1.1-0.9,2S7,47.9,6.9,48.1H6.4
		c0-0.3-0.1-1-0.4-2.1S5.6,44.2,5.6,44s-0.1-0.3-0.1-0.5h0c0,0.4-0.2,1.2-0.4,2.5s-0.3,1.9-0.3,2H4.1c0-0.1,0.2-0.9,0.5-2.3
		s0.5-2.4,0.6-2.8H6c0,0.4,0.1,1.1,0.4,2.2s0.4,1.7,0.4,2.1h0c0-0.3,0.3-1,0.9-2.1s0.8-1.8,0.9-2.1h1c-0.1,0.7-0.1,1.7-0.1,2.9
		C9.4,46.8,9.5,47.5,9.5,48.1z"/>
	<path class="st6" d="M13.6,44.2c-0.2,1.3-0.4,2.3-0.4,2.9c0,0.3,0,0.6,0.1,1l-0.7,0.1c0-0.2,0-0.5,0-0.9h0
		c-0.3,0.6-0.8,0.9-1.3,0.9c-0.3,0-0.6-0.1-0.7-0.4s-0.2-0.6-0.2-1c0-0.7,0.2-1.2,0.7-1.7s1.1-0.7,2-0.7l0.2-0.1L13.6,44.2z
		 M12.9,44.8c-0.7,0-1.1,0.2-1.4,0.5S11,46.2,11,46.7c0,0.6,0.2,0.9,0.6,0.9c0.3,0,0.5-0.2,0.8-0.6s0.4-0.8,0.4-1.1
		S12.9,45.2,12.9,44.8z"/>
	<path class="st6" d="M17.9,45.8c0,0.7-0.2,1.3-0.5,1.7s-0.8,0.7-1.5,0.7c-0.4,0-0.7-0.1-0.9-0.3h0c-0.1,0.7-0.1,1.4-0.2,1.9l-0.7,0
		c0.3-2.4,0.5-3.9,0.5-4.6c0-0.2,0-0.5-0.1-0.9l0.7-0.1c0,0.2,0,0.5,0,0.9h0c0.3-0.6,0.8-0.9,1.4-0.9c0.4,0,0.7,0.1,0.9,0.4
		S17.9,45.3,17.9,45.8z M17.2,46c0-0.8-0.3-1.2-0.8-1.2c-0.3,0-0.6,0.2-0.8,0.5s-0.4,0.8-0.5,1.3L15,47.5c0.3,0.2,0.5,0.2,0.7,0.2
		c0.5,0,0.9-0.2,1.1-0.5S17.2,46.5,17.2,46z"/>
	<path class="st6" d="M23.1,44.3L23,45c-0.3-0.1-0.5-0.1-0.8-0.1c-0.4,0-0.7,0.2-0.9,0.5s-0.4,0.7-0.4,1.1c0,0.4,0.1,0.7,0.2,0.9
		s0.4,0.3,0.7,0.3c0.3,0,0.7-0.1,1.1-0.4l-0.1,0.6c-0.3,0.2-0.6,0.3-1.1,0.3c-0.5,0-0.9-0.2-1.1-0.5c-0.2-0.3-0.4-0.7-0.4-1.2
		c0-0.6,0.2-1.1,0.6-1.5s0.9-0.6,1.6-0.6C22.7,44.3,22.9,44.3,23.1,44.3z"/>
	<path class="st6" d="M26.2,44.3L26,44.9c-0.2-0.1-0.4-0.1-0.5-0.1c-0.6,0-0.9,0.3-1,0.9c-0.1,0.9-0.2,1.7-0.2,2.3l-0.6,0
		c0.2-1.3,0.3-2.3,0.3-2.7c0-0.3,0-0.6-0.1-1l0.7-0.1c0,0.2,0,0.4,0,0.6h0c0.3-0.4,0.6-0.6,1-0.6C25.8,44.2,26,44.3,26.2,44.3z"/>
	<path class="st6" d="M29.8,45.1c0,0.4-0.2,0.6-0.5,0.8c-0.4,0.2-1.1,0.4-2.1,0.4c0,0.5,0.1,0.8,0.2,1s0.4,0.3,0.8,0.3
		c0.4,0,0.8-0.1,1.2-0.4l-0.1,0.6c-0.4,0.3-0.8,0.4-1.3,0.4c-0.5,0-0.9-0.2-1.2-0.5s-0.4-0.7-0.4-1.2c0-0.7,0.2-1.3,0.6-1.7
		s0.9-0.6,1.5-0.6c0.3,0,0.6,0.1,0.8,0.2S29.8,44.8,29.8,45.1z M29.2,45.1c0-0.1-0.1-0.2-0.2-0.3s-0.3-0.1-0.5-0.1
		c-0.3,0-0.5,0.1-0.8,0.3s-0.4,0.5-0.5,0.9c0.8,0,1.3-0.1,1.6-0.3C29.1,45.5,29.2,45.3,29.2,45.1z"/>
	<path class="st6" d="M33.5,44.2c-0.2,1.3-0.4,2.3-0.4,2.9c0,0.3,0,0.6,0.1,1l-0.7,0.1c0-0.2,0-0.5,0-0.9h0
		c-0.3,0.6-0.8,0.9-1.3,0.9c-0.3,0-0.6-0.1-0.7-0.4s-0.2-0.6-0.2-1c0-0.7,0.2-1.2,0.7-1.7s1.1-0.7,2-0.7l0.2-0.1L33.5,44.2z
		 M32.8,44.8c-0.7,0-1.1,0.2-1.4,0.5s-0.5,0.8-0.5,1.4c0,0.6,0.2,0.9,0.6,0.9c0.3,0,0.5-0.2,0.8-0.6s0.4-0.8,0.4-1.1
		S32.8,45.2,32.8,44.8z"/>
	<path class="st6" d="M36.5,47.4l-0.1,0.5c-0.3,0.2-0.6,0.3-0.8,0.3c-0.4,0-0.6-0.1-0.7-0.3s-0.2-0.5-0.2-0.8c0-0.3,0.1-1,0.2-2.1
		c-0.1,0-0.4,0-0.6,0l0.1-0.6c0.2,0,0.5,0,0.6,0c0-0.1,0.1-0.5,0.2-1.1l0.6-0.1c0,0.3-0.1,0.7-0.2,1.2c0.2,0,0.6,0,1,0L36.4,45
		c-0.4,0-0.8,0-1.1,0c-0.1,0.9-0.2,1.5-0.2,1.9c0,0.3,0,0.5,0.1,0.6s0.2,0.2,0.4,0.2C35.9,47.6,36.2,47.5,36.5,47.4z"/>
	<path class="st6" d="M40.4,45.1c0,0.4-0.2,0.6-0.5,0.8c-0.4,0.2-1.1,0.4-2.1,0.4c0,0.5,0.1,0.8,0.2,1s0.4,0.3,0.8,0.3
		c0.4,0,0.8-0.1,1.2-0.4L40,47.8c-0.4,0.3-0.8,0.4-1.3,0.4c-0.5,0-0.9-0.2-1.2-0.5s-0.4-0.7-0.4-1.2c0-0.7,0.2-1.3,0.6-1.7
		s0.9-0.6,1.5-0.6c0.3,0,0.6,0.1,0.8,0.2S40.4,44.8,40.4,45.1z M39.8,45.1c0-0.1-0.1-0.2-0.2-0.3s-0.3-0.1-0.5-0.1
		c-0.3,0-0.5,0.1-0.8,0.3s-0.4,0.5-0.5,0.9c0.8,0,1.3-0.1,1.6-0.3C39.7,45.5,39.8,45.3,39.8,45.1z"/>
	<path class="st6" d="M44.7,42.6c0,0.1,0,0.3-0.1,0.8s-0.2,1.1-0.2,1.8s-0.1,1.3-0.1,1.9c0,0.4,0,0.7,0,1l-0.6,0.1
		c0-0.2-0.1-0.5-0.1-0.9h0c-0.3,0.6-0.8,0.9-1.4,0.9c-0.4,0-0.7-0.1-0.9-0.4s-0.3-0.6-0.3-1.1c0-0.7,0.2-1.3,0.5-1.7
		s0.8-0.7,1.5-0.7c0.4,0,0.7,0.1,0.9,0.3h0c0.1-0.5,0.1-1.2,0.1-1.9L44.7,42.6z M43.8,45c-0.2-0.2-0.5-0.2-0.7-0.2
		c-0.5,0-0.9,0.2-1.1,0.5s-0.4,0.7-0.4,1.2c0,0.8,0.3,1.2,0.8,1.2c0.3,0,0.6-0.2,0.8-0.5s0.4-0.8,0.5-1.3L43.8,45z"/>
	<path class="st6" d="M50.5,45.8c0,0.7-0.2,1.3-0.5,1.7s-0.8,0.7-1.5,0.7c-0.4,0-0.7-0.1-0.9-0.3h0l-0.1,0.2l-0.6,0
		c0-0.2,0.1-1.2,0.3-3c0.1-1,0.2-1.9,0.2-2.6l0.7,0c0,0.1,0,0.3-0.1,0.6c-0.1,0.5-0.1,1-0.2,1.5c0,0.1,0,0.3-0.1,0.5h0
		c0.3-0.6,0.8-0.9,1.4-0.9c0.4,0,0.7,0.1,0.9,0.4S50.5,45.3,50.5,45.8z M49.9,46c0-0.8-0.3-1.2-0.8-1.2c-0.3,0-0.6,0.2-0.8,0.5
		s-0.4,0.8-0.5,1.3l-0.1,0.9c0.3,0.2,0.5,0.2,0.7,0.2c0.5,0,0.9-0.2,1.1-0.5S49.9,46.5,49.9,46z"/>
	<path class="st6" d="M54.4,44.3c0,0.3-0.3,1-0.8,2s-0.9,1.6-0.9,1.8c-0.2,0.7-0.5,1.1-0.7,1.3c-0.2,0.3-0.6,0.4-1.1,0.4l0-0.5
		c0.3,0,0.6-0.1,0.9-0.4s0.4-0.5,0.4-0.9c0-0.4-0.2-1-0.5-1.9s-0.5-1.5-0.5-1.7l0.8,0c0,0.3,0.1,0.9,0.3,1.6s0.3,1.2,0.3,1.5h0
		c0-0.1,0.2-0.6,0.6-1.4s0.5-1.3,0.5-1.7L54.4,44.3z"/>
	<path class="st6" d="M60.6,48.1h-0.8c0-0.3-0.1-0.8-0.3-1.6h-2.1c-0.1,0.2-0.2,0.5-0.3,0.7c-0.2,0.5-0.3,0.8-0.3,1H56
		c0-0.1,0.4-0.9,1.2-2.5c0.8-1.6,1.2-2.4,1.2-2.6h0.9c0,0.2,0.2,1.1,0.6,2.6S60.6,47.9,60.6,48.1z M59.4,45.9
		c-0.4-1.5-0.6-2.3-0.6-2.4h0c0,0.1-0.4,0.9-1.2,2.4H59.4z"/>
	<path class="st6" d="M62.6,42.5c0,0.2,0,0.5-0.1,1s-0.1,1.1-0.2,1.6c-0.1,1.2-0.2,2.2-0.2,2.9l-0.7,0.1c0-0.1,0-0.5,0.1-1
		s0.2-1.2,0.2-1.9c0.1-1.1,0.2-1.9,0.2-2.6L62.6,42.5z"/>
	<path class="st6" d="M64.4,42.5c0,0.2,0,0.5-0.1,1s-0.1,1.1-0.2,1.6c-0.1,1.2-0.2,2.2-0.2,2.9l-0.7,0.1c0-0.1,0-0.5,0.1-1
		s0.2-1.2,0.2-1.9c0.1-1.1,0.2-1.9,0.2-2.6L64.4,42.5z"/>
	<path class="st6" d="M66,44.3c0,0.2,0,0.4-0.1,0.8s-0.1,0.7-0.2,1.2c0,0.4-0.1,1-0.1,1.8l-0.7,0c0.1-0.4,0.1-1,0.2-1.8
		c0.1-0.5,0.1-1,0.1-1.4c0-0.2,0-0.3,0-0.5L66,44.3z M66.3,43.1c0,0.2,0,0.3-0.1,0.4s-0.2,0.2-0.4,0.2c-0.2,0-0.4-0.1-0.4-0.4
		c0-0.2,0-0.3,0.1-0.4s0.2-0.2,0.4-0.2C66.2,42.8,66.3,42.9,66.3,43.1z"/>
	<path class="st6" d="M69.7,44.3L69.5,45c-0.3-0.1-0.5-0.1-0.8-0.1c-0.4,0-0.7,0.2-0.9,0.5s-0.4,0.7-0.4,1.1c0,0.4,0.1,0.7,0.2,0.9
		s0.4,0.3,0.7,0.3c0.3,0,0.7-0.1,1.1-0.4l-0.1,0.6c-0.3,0.2-0.6,0.3-1.1,0.3c-0.5,0-0.9-0.2-1.1-0.5c-0.2-0.3-0.4-0.7-0.4-1.2
		c0-0.6,0.2-1.1,0.6-1.5s0.9-0.6,1.6-0.6C69.2,44.3,69.5,44.3,69.7,44.3z"/>
	<path class="st6" d="M73.4,45.1c0,0.4-0.2,0.6-0.5,0.8c-0.4,0.2-1.1,0.4-2.1,0.4c0,0.5,0.1,0.8,0.2,1s0.4,0.3,0.8,0.3
		c0.4,0,0.8-0.1,1.2-0.4L73,47.8c-0.4,0.3-0.8,0.4-1.3,0.4c-0.5,0-0.9-0.2-1.2-0.5s-0.4-0.7-0.4-1.2c0-0.7,0.2-1.3,0.6-1.7
		s0.9-0.6,1.5-0.6c0.3,0,0.6,0.1,0.8,0.2S73.4,44.8,73.4,45.1z M72.8,45.1c0-0.1-0.1-0.2-0.2-0.3s-0.3-0.1-0.5-0.1
		c-0.3,0-0.5,0.1-0.8,0.3s-0.4,0.5-0.5,0.9c0.8,0,1.3-0.1,1.6-0.3C72.7,45.5,72.8,45.3,72.8,45.1z"/>
	<path class="st6" d="M79.7,43c-0.1,0.3-0.2,1.1-0.3,2.4c-0.1,0.9-0.2,1.8-0.2,2.7h-0.7c0.1-0.4,0.2-1.2,0.3-2.4h-2.2
		c-0.1,0.6-0.1,1.4-0.2,2.4h-0.7c0.1-0.4,0.2-1.3,0.3-2.7c0.1-0.9,0.1-1.7,0.2-2.4h0.7c-0.1,0.3-0.1,1.1-0.3,2.2h2.2
		c0.1-0.6,0.1-1.3,0.1-2.2H79.7z"/>
	<path class="st6" d="M83.9,44.3c-0.2,1.4-0.3,2.4-0.3,2.9c0,0.3,0,0.6,0.1,0.9L83,48.1c0-0.2,0-0.5,0-0.9h0
		c-0.3,0.6-0.8,0.9-1.4,0.9c-0.7,0-1-0.4-1-1.2c0-0.2,0-0.6,0.1-1.3s0.1-1.1,0.1-1.4l0.7-0.1c0,0.1,0,0.5-0.1,1.1s-0.1,1.1-0.1,1.4
		c0,0.3,0.1,0.5,0.2,0.6s0.3,0.2,0.5,0.2c0.3,0,0.6-0.2,0.8-0.6s0.4-0.8,0.5-1.2c0.1-0.6,0.1-1.1,0.1-1.5L83.9,44.3z"/>
	<path class="st6" d="M88,45.4c0,0.2,0,0.6-0.1,1.3s-0.1,1.1-0.1,1.4l-0.7,0c0-0.1,0-0.5,0.1-1.1s0.1-1.1,0.1-1.4
		c0-0.3-0.1-0.5-0.2-0.6s-0.3-0.2-0.5-0.2c-0.3,0-0.6,0.2-0.8,0.6s-0.4,0.8-0.5,1.2c-0.1,0.6-0.1,1.1-0.1,1.5l-0.6,0
		c0.2-1.3,0.3-2.3,0.3-2.7c0-0.3,0-0.6-0.1-1l0.7-0.1c0,0.2,0,0.5,0,0.9h0c0.3-0.6,0.8-0.9,1.4-0.9C87.6,44.2,88,44.6,88,45.4z"/>
	<path class="st6" d="M91.1,47.4L91,47.9c-0.3,0.2-0.6,0.3-0.8,0.3c-0.4,0-0.6-0.1-0.7-0.3s-0.2-0.5-0.2-0.8c0-0.3,0.1-1,0.2-2.1
		c-0.1,0-0.4,0-0.6,0l0.1-0.6c0.2,0,0.5,0,0.6,0c0-0.1,0.1-0.5,0.2-1.1l0.6-0.1c0,0.3-0.1,0.7-0.2,1.2c0.2,0,0.6,0,1,0L91,45
		c-0.4,0-0.8,0-1.1,0c-0.1,0.9-0.2,1.5-0.2,1.9c0,0.3,0,0.5,0.1,0.6s0.2,0.2,0.4,0.2C90.5,47.6,90.8,47.5,91.1,47.4z"/>
	<path class="st6" d="M95,45.1c0,0.4-0.2,0.6-0.5,0.8c-0.4,0.2-1.1,0.4-2.1,0.4c0,0.5,0.1,0.8,0.2,1s0.4,0.3,0.8,0.3
		c0.4,0,0.8-0.1,1.2-0.4l-0.1,0.6c-0.4,0.3-0.8,0.4-1.3,0.4c-0.5,0-0.9-0.2-1.2-0.5s-0.4-0.7-0.4-1.2c0-0.7,0.2-1.3,0.6-1.7
		s0.9-0.6,1.5-0.6c0.3,0,0.6,0.1,0.8,0.2S95,44.8,95,45.1z M94.4,45.1c0-0.1-0.1-0.2-0.2-0.3s-0.3-0.1-0.5-0.1
		c-0.3,0-0.5,0.1-0.8,0.3s-0.4,0.5-0.5,0.9c0.8,0,1.3-0.1,1.6-0.3C94.3,45.5,94.4,45.3,94.4,45.1z"/>
	<path class="st6" d="M98.2,44.3l-0.2,0.6c-0.2-0.1-0.4-0.1-0.5-0.1c-0.6,0-0.9,0.3-1,0.9c-0.1,0.9-0.2,1.7-0.2,2.3l-0.6,0
		c0.2-1.3,0.3-2.3,0.3-2.7c0-0.3,0-0.6-0.1-1l0.7-0.1c0,0.2,0,0.4,0,0.6h0c0.3-0.4,0.6-0.6,1-0.6C97.7,44.2,97.9,44.3,98.2,44.3z"/>
	<path class="st6" d="M103.7,45.9c0,0.6-0.2,1.2-0.6,1.6s-0.9,0.7-1.5,0.7c-0.4,0-0.8-0.2-1.1-0.5s-0.4-0.8-0.4-1.3
		c0-0.6,0.2-1.1,0.6-1.6s0.9-0.7,1.5-0.7c0.4,0,0.8,0.2,1.1,0.5S103.7,45.4,103.7,45.9z M103,46c0-0.4-0.1-0.7-0.2-0.9
		s-0.4-0.4-0.7-0.4c-0.4,0-0.7,0.2-0.9,0.5s-0.3,0.8-0.3,1.2c0,0.4,0.1,0.7,0.3,0.9s0.4,0.4,0.7,0.4c0.4,0,0.7-0.2,0.9-0.5
		S103,46.4,103,46z"/>
	<path class="st6" d="M107.7,45.4c0,0.2,0,0.6-0.1,1.3s-0.1,1.1-0.1,1.4l-0.7,0c0-0.1,0-0.5,0.1-1.1s0.1-1.1,0.1-1.4
		c0-0.3-0.1-0.5-0.2-0.6s-0.3-0.2-0.5-0.2c-0.3,0-0.6,0.2-0.8,0.6s-0.4,0.8-0.5,1.2c-0.1,0.6-0.1,1.1-0.1,1.5l-0.6,0
		c0.2-1.3,0.3-2.3,0.3-2.7c0-0.3,0-0.6-0.1-1l0.7-0.1c0,0.2,0,0.5,0,0.9h0c0.3-0.6,0.8-0.9,1.4-0.9
		C107.4,44.2,107.7,44.6,107.7,45.4z"/>
	<path class="st6" d="M113.6,45.6c0,0.7-0.2,1.3-0.5,1.8s-0.8,0.8-1.4,0.8c-0.5,0-0.9-0.2-1.1-0.5s-0.3-0.7-0.3-1.2
		c0-0.7,0.2-1.3,0.5-1.8s0.8-0.8,1.4-0.8c0.5,0,0.9,0.2,1.1,0.5S113.6,45.2,113.6,45.6z M113,45.7c0-0.4-0.1-0.7-0.2-0.9
		s-0.4-0.4-0.7-0.4c-0.3,0-0.6,0.2-0.8,0.6s-0.3,0.8-0.3,1.4c0,0.4,0.1,0.7,0.2,1s0.4,0.3,0.7,0.3c0.3,0,0.6-0.2,0.8-0.5
		S113,46.3,113,45.7z"/>
	<path class="st6" d="M117.3,44.9c0,0.5-0.3,0.9-1,1.2l0,0c0.3,0.1,0.6,0.2,0.8,0.4s0.3,0.5,0.3,0.8c0,0.7-0.3,1.2-1,1.6
		s-1.4,0.6-2.2,0.6l-0.1-0.5c0.6-0.1,1.2-0.2,1.7-0.5s0.8-0.7,0.8-1.1c0-0.6-0.6-0.9-1.7-0.9l0.1-0.5c0.4,0,0.8-0.1,1.1-0.2
		s0.6-0.4,0.6-0.7c0-0.4-0.4-0.6-1.1-0.6c-0.3,0-0.6,0-0.8,0.1L115,44c0.3-0.1,0.7-0.1,1.1-0.1s0.8,0.1,1,0.3S117.3,44.6,117.3,44.9
		z"/>
	<path class="st6" d="M125.1,48.1h-0.7c0-1.4,0.1-2.9,0.2-4.5h0c0,0.1-0.1,0.3-0.3,0.7s-0.5,1.1-0.9,2s-0.7,1.6-0.8,1.8H122
		c0-0.3-0.1-1-0.4-2.1s-0.4-1.8-0.4-1.9s-0.1-0.3-0.1-0.5h0c0,0.4-0.2,1.2-0.4,2.5s-0.3,1.9-0.3,2h-0.7c0-0.1,0.2-0.9,0.5-2.3
		s0.5-2.4,0.6-2.8h0.9c0,0.4,0.1,1.1,0.4,2.2s0.4,1.7,0.4,2.1h0c0-0.3,0.3-1,0.9-2.1s0.8-1.8,0.9-2.1h1c-0.1,0.7-0.1,1.7-0.1,2.9
		C125,46.8,125,47.5,125.1,48.1z"/>
	<path class="st6" d="M129.2,44.2c-0.2,1.3-0.4,2.3-0.4,2.9c0,0.3,0,0.6,0.1,1l-0.7,0.1c0-0.2,0-0.5,0-0.9h0
		c-0.3,0.6-0.8,0.9-1.3,0.9c-0.3,0-0.6-0.1-0.7-0.4s-0.2-0.6-0.2-1c0-0.7,0.2-1.2,0.7-1.7s1.1-0.7,2-0.7l0.2-0.1L129.2,44.2z
		 M128.5,44.8c-0.7,0-1.1,0.2-1.4,0.5s-0.5,0.8-0.5,1.4c0,0.6,0.2,0.9,0.6,0.9c0.3,0,0.5-0.2,0.8-0.6s0.4-0.8,0.4-1.1
		S128.5,45.2,128.5,44.8z"/>
	<path class="st6" d="M133.1,44.3c0,0.3-0.3,1-0.8,2s-0.9,1.6-0.9,1.8c-0.2,0.7-0.5,1.1-0.7,1.3c-0.2,0.3-0.6,0.4-1.1,0.4l0-0.5
		c0.3,0,0.6-0.1,0.9-0.4s0.4-0.5,0.4-0.9c0-0.4-0.2-1-0.5-1.9s-0.5-1.5-0.5-1.7l0.8,0c0,0.3,0.1,0.9,0.3,1.6s0.3,1.2,0.3,1.5h0
		c0-0.1,0.2-0.6,0.6-1.4s0.5-1.3,0.5-1.7L133.1,44.3z"/>
	<path class="st6" d="M133.9,47.5c0,0.6-0.4,1.3-1.3,2l-0.2-0.2c0.2-0.3,0.4-0.5,0.5-0.7c0.1-0.1,0.1-0.3,0.1-0.6
		c-0.1-0.1-0.2-0.2-0.2-0.4c0-0.2,0.1-0.3,0.2-0.4s0.3-0.2,0.4-0.2c0.1,0,0.2,0.1,0.3,0.2C133.9,47.3,133.9,47.4,133.9,47.5z"/>
	<path class="st6" d="M139.3,47.5l-0.1,0.6h-2.7l0.1-0.6c0.4-0.2,0.8-0.5,1.3-0.9s0.7-0.9,0.7-1.4c0-0.5-0.3-0.7-1-0.7
		c-0.2,0-0.4,0-0.8,0.1L137,44c0.2-0.1,0.4-0.1,0.8-0.1c0.6,0,0.9,0.1,1.2,0.3s0.3,0.5,0.3,0.8c0,0.3-0.1,0.5-0.2,0.8
		s-0.3,0.5-0.7,0.8s-0.7,0.6-1.2,0.9l0,0C137.9,47.6,138.6,47.6,139.3,47.5z"/>
	<path class="st6" d="M143.6,45.6c0,0.7-0.2,1.3-0.5,1.8s-0.8,0.8-1.4,0.8c-0.5,0-0.9-0.2-1.1-0.5s-0.3-0.7-0.3-1.2
		c0-0.7,0.2-1.3,0.5-1.8s0.8-0.8,1.4-0.8c0.5,0,0.9,0.2,1.1,0.5S143.6,45.2,143.6,45.6z M143,45.7c0-0.4-0.1-0.7-0.2-0.9
		s-0.4-0.4-0.7-0.4c-0.3,0-0.6,0.2-0.8,0.6s-0.3,0.8-0.3,1.4c0,0.4,0.1,0.7,0.2,1s0.4,0.3,0.7,0.3c0.3,0,0.6-0.2,0.8-0.5
		S143,46.3,143,45.7z"/>
	<path class="st6" d="M145.8,48.1h-0.7c0.1-0.5,0.2-1.1,0.2-1.7c0.1-0.6,0.1-1.1,0.1-1.4l-0.9,0.4l-0.1-0.3l1.4-1h0.4
		c-0.1,0.8-0.2,1.6-0.3,2.4C145.9,46.9,145.9,47.5,145.8,48.1z"/>
	<path class="st6" d="M150.5,45.8c0,1.1-0.3,2-0.8,2.7s-1.3,1.1-2.3,1.2l-0.1-0.5c1.3-0.1,2.1-0.9,2.4-2.4h0
		c-0.3,0.4-0.7,0.5-1.2,0.5c-0.4,0-0.7-0.1-0.9-0.4s-0.3-0.6-0.3-1c0-0.5,0.2-1,0.5-1.4s0.8-0.6,1.3-0.6c0.4,0,0.7,0.2,1,0.5
		S150.5,45.2,150.5,45.8z M149.8,45.9c0-0.5-0.1-0.8-0.3-1.1s-0.4-0.4-0.6-0.4c-0.3,0-0.6,0.1-0.8,0.4s-0.3,0.5-0.3,0.9
		c0,0.3,0.1,0.6,0.3,0.8s0.4,0.3,0.7,0.3c0.4,0,0.7-0.2,0.9-0.5C149.8,46.2,149.8,46,149.8,45.9z"/>
	<path class="st6" d="M8,52.6L8,53.1c-0.5,0-1,0-1.5,0c-0.1,0.4-0.1,1.1-0.2,1.9s-0.2,1.7-0.2,2.7H5.3c0.1-0.4,0.2-1.3,0.3-2.7
		c0.1-0.8,0.1-1.4,0.2-1.9c-0.4,0-0.9,0-1.6,0l0.1-0.6H8z"/>
	<path class="st6" d="M11.7,55c0,0.2,0,0.6-0.1,1.3s-0.1,1.1-0.1,1.4l-0.7,0c0-0.1,0-0.5,0.1-1.1s0.1-1.1,0.1-1.4
		c0-0.3-0.1-0.5-0.2-0.6s-0.3-0.2-0.5-0.2c-0.3,0-0.6,0.2-0.8,0.6s-0.4,0.8-0.5,1.2C9,56.8,9,57.3,9,57.7l-0.7,0
		c0-0.2,0.1-1.2,0.3-3c0.1-1,0.2-1.9,0.2-2.6l0.7,0c0,0.1,0,0.3-0.1,0.6c-0.1,0.5-0.1,1-0.2,1.5c0,0.1,0,0.3-0.1,0.5h0
		c0.3-0.6,0.8-0.9,1.4-0.9C11.3,53.8,11.7,54.2,11.7,55z"/>
	<path class="st6" d="M13.5,53.9c0,0.2,0,0.4-0.1,0.8s-0.1,0.7-0.2,1.2c0,0.4-0.1,1-0.1,1.8l-0.7,0c0.1-0.4,0.1-1,0.2-1.8
		c0.1-0.5,0.1-1,0.1-1.4c0-0.2,0-0.3,0-0.5L13.5,53.9z M13.8,52.7c0,0.2,0,0.3-0.1,0.4s-0.2,0.2-0.4,0.2c-0.2,0-0.4-0.1-0.4-0.4
		c0-0.2,0-0.3,0.1-0.4s0.2-0.2,0.4-0.2C13.7,52.4,13.8,52.5,13.8,52.7z"/>
	<path class="st6" d="M16.8,53.9l-0.2,0.6c-0.3-0.1-0.6-0.1-0.9-0.1c-0.5,0-0.8,0.2-0.8,0.5c0,0.1,0,0.2,0.1,0.3s0.3,0.2,0.6,0.3
		c0.7,0.3,1,0.6,1,1.1c0,0.8-0.5,1.2-1.5,1.2c-0.4,0-0.8,0-1.1-0.1l0.2-0.6c0.3,0.1,0.6,0.2,1,0.2c0.6,0,0.9-0.2,0.9-0.5
		c0-0.2-0.2-0.5-0.7-0.7c-0.7-0.3-1-0.7-1-1.1c0-0.4,0.1-0.7,0.4-0.9s0.6-0.3,1-0.3C16.2,53.9,16.6,53.9,16.8,53.9z"/>
	<path class="st6" d="M24.6,53.9c0,0.2-0.3,0.9-0.8,1.9s-0.8,1.7-0.8,1.8h-0.5c0-0.1-0.1-0.5-0.3-1.3s-0.3-1.3-0.4-1.8h0
		c-0.2,0.5-0.4,1.1-0.8,1.8s-0.5,1.1-0.6,1.2h-0.5c0-0.1-0.1-0.7-0.4-1.8s-0.4-1.7-0.4-1.9l0.7,0c0,0.2,0.1,0.7,0.3,1.6
		s0.3,1.3,0.3,1.4h0c0-0.2,0.2-0.7,0.6-1.5s0.6-1.3,0.6-1.4h0.6c0,0.1,0.1,0.6,0.3,1.5s0.3,1.4,0.3,1.5h0c0-0.1,0.2-0.6,0.5-1.4
		s0.5-1.3,0.5-1.6L24.6,53.9z"/>
	<path class="st6" d="M28.6,55.5c0,0.6-0.2,1.2-0.6,1.6s-0.9,0.7-1.5,0.7c-0.4,0-0.8-0.2-1.1-0.5S25,56.6,25,56.1
		c0-0.6,0.2-1.1,0.6-1.6s0.9-0.7,1.5-0.7c0.4,0,0.8,0.2,1.1,0.5S28.6,55,28.6,55.5z M27.9,55.6c0-0.4-0.1-0.7-0.2-0.9
		s-0.4-0.4-0.7-0.4c-0.4,0-0.7,0.2-0.9,0.5s-0.3,0.8-0.3,1.2c0,0.4,0.1,0.7,0.3,0.9s0.4,0.4,0.7,0.4c0.4,0,0.7-0.2,0.9-0.5
		S27.9,56,27.9,55.6z"/>
	<path class="st6" d="M31.9,53.9l-0.2,0.6c-0.2-0.1-0.4-0.1-0.5-0.1c-0.6,0-0.9,0.3-1,0.9c-0.1,0.9-0.2,1.7-0.2,2.3l-0.6,0
		c0.2-1.3,0.3-2.3,0.3-2.7c0-0.3,0-0.6-0.1-1l0.7-0.1c0,0.2,0,0.4,0,0.6h0c0.3-0.4,0.6-0.6,1-0.6C31.4,53.8,31.6,53.9,31.9,53.9z"/>
	<path class="st6" d="M35.6,53.9c0,0.1-0.2,0.3-0.5,0.6s-0.6,0.6-0.9,0.8l0,0c0.3,0.3,0.5,0.8,0.7,1.2s0.3,0.8,0.3,1l-0.7,0
		c0-0.1-0.1-0.4-0.2-0.8s-0.3-0.7-0.5-1c-0.2,0.2-0.3,0.4-0.5,0.6c-0.3,0.4-0.5,0.9-0.5,1.3l-0.6,0c0-0.2,0.2-1.2,0.4-3
		c0.1-1,0.2-1.9,0.2-2.6l0.7,0c0,0.1-0.1,0.7-0.2,1.7s-0.2,1.9-0.3,2.5h0c0.1-0.3,0.5-0.8,1-1.4s0.8-1,0.8-1.1L35.6,53.9z"/>
	<path class="st6" d="M38.8,53.9c0,0.2,0,0.4-0.1,0.8s-0.1,0.7-0.2,1.2c0,0.4-0.1,1-0.1,1.8l-0.7,0c0.1-0.4,0.1-1,0.2-1.8
		c0.1-0.5,0.1-1,0.1-1.4c0-0.2,0-0.3,0-0.5L38.8,53.9z M39,52.7c0,0.2,0,0.3-0.1,0.4s-0.2,0.2-0.4,0.2c-0.2,0-0.4-0.1-0.4-0.4
		c0-0.2,0-0.3,0.1-0.4s0.2-0.2,0.4-0.2C38.9,52.4,39,52.5,39,52.7z"/>
	<path class="st6" d="M42,53.9l-0.2,0.6c-0.3-0.1-0.6-0.1-0.9-0.1c-0.5,0-0.8,0.2-0.8,0.5c0,0.1,0,0.2,0.1,0.3s0.3,0.2,0.6,0.3
		c0.7,0.3,1,0.6,1,1.1c0,0.8-0.5,1.2-1.5,1.2c-0.4,0-0.8,0-1.1-0.1l0.2-0.6c0.3,0.1,0.6,0.2,1,0.2c0.6,0,0.9-0.2,0.9-0.5
		c0-0.2-0.2-0.5-0.7-0.7c-0.7-0.3-1-0.7-1-1.1c0-0.4,0.1-0.7,0.4-0.9s0.6-0.3,1-0.3C41.5,53.9,41.8,53.9,42,53.9z"/>
	<path class="st6" d="M45.6,52.1c0,0.2,0,0.5-0.1,1s-0.1,1.1-0.2,1.6c-0.1,1.2-0.2,2.2-0.2,2.9l-0.7,0.1c0-0.1,0-0.5,0.1-1
		s0.2-1.2,0.2-1.9c0.1-1.1,0.2-1.9,0.2-2.6L45.6,52.1z"/>
	<path class="st6" d="M47.2,53.9c0,0.2,0,0.4-0.1,0.8S47,55.4,47,55.9c0,0.4-0.1,1-0.1,1.8l-0.7,0c0.1-0.4,0.1-1,0.2-1.8
		c0.1-0.5,0.1-1,0.1-1.4c0-0.2,0-0.3,0-0.5L47.2,53.9z M47.5,52.7c0,0.2,0,0.3-0.1,0.4s-0.2,0.2-0.4,0.2c-0.2,0-0.4-0.1-0.4-0.4
		c0-0.2,0-0.3,0.1-0.4s0.2-0.2,0.4-0.2C47.4,52.4,47.5,52.5,47.5,52.7z"/>
	<path class="st6" d="M50.8,53.9l-0.2,0.6c-0.3-0.1-0.5-0.1-0.8-0.1c-0.4,0-0.7,0.2-0.9,0.5s-0.4,0.7-0.4,1.1c0,0.4,0.1,0.7,0.2,0.9
		s0.4,0.3,0.7,0.3c0.3,0,0.7-0.1,1.1-0.4l-0.1,0.6c-0.3,0.2-0.6,0.3-1.1,0.3c-0.5,0-0.9-0.2-1.1-0.5c-0.2-0.3-0.4-0.7-0.4-1.2
		c0-0.6,0.2-1.1,0.6-1.5s0.9-0.6,1.6-0.6C50.4,53.9,50.6,53.9,50.8,53.9z"/>
	<path class="st6" d="M54.6,54.7c0,0.4-0.2,0.6-0.5,0.8c-0.4,0.2-1.1,0.4-2.1,0.4c0,0.5,0.1,0.8,0.2,1s0.4,0.3,0.8,0.3
		c0.4,0,0.8-0.1,1.2-0.4l-0.1,0.6c-0.4,0.3-0.8,0.4-1.3,0.4c-0.5,0-0.9-0.2-1.2-0.5s-0.4-0.7-0.4-1.2c0-0.7,0.2-1.3,0.6-1.7
		s0.9-0.6,1.5-0.6c0.3,0,0.6,0.1,0.8,0.2S54.6,54.4,54.6,54.7z M54,54.7c0-0.1-0.1-0.2-0.2-0.3s-0.3-0.1-0.5-0.1
		c-0.3,0-0.5,0.1-0.8,0.3S52.1,55,52,55.4c0.8,0,1.3-0.1,1.6-0.3C53.8,55.1,54,54.9,54,54.7z"/>
	<path class="st6" d="M58.5,55c0,0.2,0,0.6-0.1,1.3s-0.1,1.1-0.1,1.4l-0.7,0c0-0.1,0-0.5,0.1-1.1s0.1-1.1,0.1-1.4
		c0-0.3-0.1-0.5-0.2-0.6s-0.3-0.2-0.5-0.2c-0.3,0-0.6,0.2-0.8,0.6s-0.4,0.8-0.5,1.2c-0.1,0.6-0.1,1.1-0.1,1.5l-0.6,0
		c0.2-1.3,0.3-2.3,0.3-2.7c0-0.3,0-0.6-0.1-1l0.7-0.1c0,0.2,0,0.5,0,0.9h0c0.3-0.6,0.8-0.9,1.4-0.9C58.2,53.8,58.5,54.2,58.5,55z"/>
	<path class="st6" d="M61.8,53.9l-0.2,0.6c-0.3-0.1-0.6-0.1-0.9-0.1c-0.5,0-0.8,0.2-0.8,0.5c0,0.1,0,0.2,0.1,0.3s0.3,0.2,0.6,0.3
		c0.7,0.3,1,0.6,1,1.1c0,0.8-0.5,1.2-1.5,1.2c-0.4,0-0.8,0-1.1-0.1l0.2-0.6c0.3,0.1,0.6,0.2,1,0.2c0.6,0,0.9-0.2,0.9-0.5
		c0-0.2-0.2-0.5-0.7-0.7c-0.7-0.3-1-0.7-1-1.1c0-0.4,0.1-0.7,0.4-0.9s0.6-0.3,1-0.3C61.3,53.9,61.6,53.9,61.8,53.9z"/>
	<path class="st6" d="M65.7,54.7c0,0.4-0.2,0.6-0.5,0.8c-0.4,0.2-1.1,0.4-2.1,0.4c0,0.5,0.1,0.8,0.2,1s0.4,0.3,0.8,0.3
		c0.4,0,0.8-0.1,1.2-0.4l-0.1,0.6c-0.4,0.3-0.8,0.4-1.3,0.4c-0.5,0-0.9-0.2-1.2-0.5s-0.4-0.7-0.4-1.2c0-0.7,0.2-1.3,0.6-1.7
		s0.9-0.6,1.5-0.6c0.3,0,0.6,0.1,0.8,0.2S65.7,54.4,65.7,54.7z M65.1,54.7c0-0.1-0.1-0.2-0.2-0.3s-0.3-0.1-0.5-0.1
		c-0.3,0-0.5,0.1-0.8,0.3s-0.4,0.5-0.5,0.9c0.8,0,1.3-0.1,1.6-0.3C65,55.1,65.1,54.9,65.1,54.7z"/>
	<path class="st6" d="M70,52.2c0,0.1,0,0.3-0.1,0.8s-0.2,1.1-0.2,1.8s-0.1,1.3-0.1,1.9c0,0.4,0,0.7,0,1L69,57.7
		c0-0.2-0.1-0.5-0.1-0.9h0c-0.3,0.6-0.8,0.9-1.4,0.9c-0.4,0-0.7-0.1-0.9-0.4s-0.3-0.6-0.3-1.1c0-0.7,0.2-1.3,0.5-1.7
		s0.8-0.7,1.5-0.7c0.4,0,0.7,0.1,0.9,0.3h0c0.1-0.5,0.1-1.2,0.1-1.9L70,52.2z M69.1,54.6c-0.2-0.2-0.5-0.2-0.7-0.2
		c-0.5,0-0.9,0.2-1.1,0.5s-0.4,0.7-0.4,1.2c0,0.8,0.3,1.2,0.8,1.2c0.3,0,0.6-0.2,0.8-0.5s0.4-0.8,0.5-1.3L69.1,54.6z"/>
	<path class="st6" d="M75.7,53.9c-0.2,1.4-0.3,2.4-0.3,2.9c0,0.3,0,0.6,0.1,0.9l-0.7,0.1c0-0.2,0-0.5,0-0.9h0
		c-0.3,0.6-0.8,0.9-1.4,0.9c-0.7,0-1-0.4-1-1.2c0-0.2,0-0.6,0.1-1.3s0.1-1.1,0.1-1.4l0.7-0.1c0,0.1,0,0.5-0.1,1.1s-0.1,1.1-0.1,1.4
		c0,0.3,0.1,0.5,0.2,0.6s0.3,0.2,0.5,0.2c0.3,0,0.6-0.2,0.8-0.6s0.4-0.8,0.5-1.2C75,54.8,75,54.3,75,54L75.7,53.9z"/>
	<path class="st6" d="M79.8,55c0,0.2,0,0.6-0.1,1.3s-0.1,1.1-0.1,1.4l-0.7,0c0-0.1,0-0.5,0.1-1.1s0.1-1.1,0.1-1.4
		c0-0.3-0.1-0.5-0.2-0.6s-0.3-0.2-0.5-0.2c-0.3,0-0.6,0.2-0.8,0.6s-0.4,0.8-0.5,1.2c-0.1,0.6-0.1,1.1-0.1,1.5l-0.6,0
		c0.2-1.3,0.3-2.3,0.3-2.7c0-0.3,0-0.6-0.1-1l0.7-0.1c0,0.2,0,0.5,0,0.9h0c0.3-0.6,0.8-0.9,1.4-0.9C79.4,53.8,79.8,54.2,79.8,55z"/>
	<path class="st6" d="M84.4,52.2c0,0.1,0,0.3-0.1,0.8s-0.2,1.1-0.2,1.8s-0.1,1.3-0.1,1.9c0,0.4,0,0.7,0,1l-0.6,0.1
		c0-0.2-0.1-0.5-0.1-0.9h0c-0.3,0.6-0.8,0.9-1.4,0.9c-0.4,0-0.7-0.1-0.9-0.4s-0.3-0.6-0.3-1.1c0-0.7,0.2-1.3,0.5-1.7
		s0.8-0.7,1.5-0.7c0.4,0,0.7,0.1,0.9,0.3h0c0.1-0.5,0.1-1.2,0.1-1.9L84.4,52.2z M83.5,54.6c-0.2-0.2-0.5-0.2-0.7-0.2
		c-0.5,0-0.9,0.2-1.1,0.5s-0.4,0.7-0.4,1.2c0,0.8,0.3,1.2,0.8,1.2c0.3,0,0.6-0.2,0.8-0.5s0.4-0.8,0.5-1.3L83.5,54.6z"/>
	<path class="st6" d="M88.1,54.7c0,0.4-0.2,0.6-0.5,0.8c-0.4,0.2-1.1,0.4-2.1,0.4c0,0.5,0.1,0.8,0.2,1s0.4,0.3,0.8,0.3
		c0.4,0,0.8-0.1,1.2-0.4l-0.1,0.6c-0.4,0.3-0.8,0.4-1.3,0.4c-0.5,0-0.9-0.2-1.2-0.5s-0.4-0.7-0.4-1.2c0-0.7,0.2-1.3,0.6-1.7
		s0.9-0.6,1.5-0.6c0.3,0,0.6,0.1,0.8,0.2S88.1,54.4,88.1,54.7z M87.5,54.7c0-0.1-0.1-0.2-0.2-0.3s-0.3-0.1-0.5-0.1
		c-0.3,0-0.5,0.1-0.8,0.3s-0.4,0.5-0.5,0.9c0.8,0,1.3-0.1,1.6-0.3C87.4,55.1,87.5,54.9,87.5,54.7z"/>
	<path class="st6" d="M91.3,53.9l-0.2,0.6c-0.2-0.1-0.4-0.1-0.5-0.1c-0.6,0-0.9,0.3-1,0.9c-0.1,0.9-0.2,1.7-0.2,2.3l-0.6,0
		c0.2-1.3,0.3-2.3,0.3-2.7c0-0.3,0-0.6-0.1-1l0.7-0.1c0,0.2,0,0.4,0,0.6h0c0.3-0.4,0.6-0.6,1-0.6C90.8,53.8,91.1,53.9,91.3,53.9z"/>
	<path class="st6" d="M96.8,52.6l-0.2,0.6c-0.3-0.1-0.5-0.1-0.7-0.1c-0.6,0-1.1,0.2-1.5,0.7s-0.6,1-0.6,1.6c0,0.5,0.2,1,0.5,1.3
		s0.8,0.5,1.3,0.5c0.2,0,0.6-0.1,1-0.2l-0.1,0.6c-0.4,0.1-0.8,0.1-1,0.1c-0.8,0-1.4-0.2-1.7-0.7s-0.6-1-0.6-1.6
		c0-0.8,0.3-1.5,0.8-2.1s1.3-0.8,2.1-0.8C96.3,52.5,96.6,52.6,96.8,52.6z"/>
	<path class="st6" d="M100.8,52.6l-0.2,0.6c-0.3-0.1-0.5-0.1-0.7-0.1c-0.6,0-1.1,0.2-1.5,0.7s-0.6,1-0.6,1.6c0,0.5,0.2,1,0.5,1.3
		s0.8,0.5,1.3,0.5c0.2,0,0.6-0.1,1-0.2l-0.1,0.6c-0.4,0.1-0.8,0.1-1,0.1c-0.8,0-1.4-0.2-1.7-0.7s-0.6-1-0.6-1.6
		c0-0.8,0.3-1.5,0.8-2.1s1.3-0.8,2.1-0.8C100.3,52.5,100.5,52.6,100.8,52.6z"/>
	<path class="st6" d="M106.4,56c0,0.6-0.2,1-0.7,1.3s-1,0.4-1.7,0.4c-0.2,0-0.6,0-1.2,0c0.1-0.4,0.2-1.3,0.3-2.7
		c0.1-0.9,0.2-1.7,0.2-2.4h0.5c0.1,0,0.3,0,0.6,0s0.5,0,0.6,0c0.4,0,0.8,0.1,1,0.3s0.4,0.4,0.4,0.8c0,0.3-0.1,0.5-0.2,0.8
		c-0.2,0.2-0.4,0.4-0.6,0.5v0c0.2,0,0.5,0.2,0.6,0.4S106.4,55.7,106.4,56z M105.8,56.1c0-0.6-0.5-0.8-1.5-0.8c-0.2,0-0.4,0-0.6,0
		c-0.1,0.7-0.1,1.3-0.2,1.9c0.1,0,0.4,0,0.7,0c0.4,0,0.8-0.1,1.1-0.2S105.8,56.5,105.8,56.1z M105.7,53.8c0-0.5-0.3-0.7-1-0.7
		c-0.3,0-0.7,0-0.9,0.1c0,0.1,0,0.6-0.1,1.6c0.2,0,0.3,0,0.5,0c0.5,0,0.8,0,1-0.1C105.5,54.4,105.7,54.2,105.7,53.8z"/>
	<path class="st6" d="M111.1,52.6c0,0.1-0.2,0.4-0.7,1s-0.8,1.1-1,1.4s-0.4,0.7-0.4,1c-0.1,0.5-0.1,1.1-0.1,1.7h-0.7
		c0.1-1,0.2-1.6,0.2-1.8c0-0.3-0.1-0.7-0.3-1.1s-0.4-0.8-0.6-1.3s-0.4-0.8-0.4-0.9h0.8c0,0.1,0.2,0.5,0.5,1.3s0.5,1.2,0.5,1.5h0
		c0-0.2,0.3-0.7,0.8-1.5s0.7-1.2,0.7-1.3H111.1z"/>
	<path class="st6" d="M112.6,55.4l-0.1,0.5l-1.6,0.1l0.1-0.5L112.6,55.4z"/>
	<path class="st6" d="M116.3,52.6l-0.2,0.6c-0.3-0.1-0.7-0.2-1.1-0.2c-0.7,0-1.1,0.2-1.1,0.7c0,0.2,0.1,0.4,0.2,0.5s0.4,0.3,0.7,0.4
		c0.4,0.2,0.7,0.4,1,0.6s0.3,0.5,0.3,0.9c0,1-0.7,1.5-2.1,1.5c-0.5,0-0.9-0.1-1.2-0.2l0.2-0.6c0.3,0.2,0.7,0.2,1.1,0.2
		c0.9,0,1.4-0.3,1.4-0.8c0-0.2-0.1-0.4-0.3-0.6s-0.4-0.3-0.8-0.5c-0.4-0.2-0.7-0.4-0.9-0.6s-0.3-0.5-0.3-0.8c0-0.5,0.2-0.8,0.5-1.1
		s0.7-0.4,1.2-0.4C115.7,52.5,116.1,52.6,116.3,52.6z"/>
	<path class="st6" d="M121.1,57.7h-0.8c0-0.3-0.1-0.8-0.3-1.6h-2.1c-0.1,0.2-0.2,0.5-0.3,0.7c-0.2,0.5-0.3,0.8-0.3,1h-0.8
		c0-0.1,0.4-0.9,1.2-2.5c0.8-1.6,1.2-2.4,1.2-2.6h0.9c0,0.2,0.2,1.1,0.6,2.6S121.1,57.5,121.1,57.7z M119.9,55.5
		c-0.4-1.5-0.6-2.3-0.6-2.4h0c0,0.1-0.4,0.9-1.2,2.4H119.9z"/>
	<path class="st6" d="M126.8,56.4l-0.1,0.6H126c-0.1,0.5-0.1,1.1-0.2,1.9h-0.7c0.1-0.7,0.2-1.3,0.2-1.9h-2.1l0-0.5
		c0-0.1,0.4-0.6,1.2-1.5s1.2-1.4,1.2-1.5h0.8c-0.1,0.6-0.2,1.5-0.4,2.9C126.3,56.5,126.5,56.5,126.8,56.4z M125.7,54.1L125.7,54.1
		c0,0.1-0.3,0.5-0.9,1.2s-0.9,1.1-0.9,1.2l0,0c0.4,0,0.9,0,1.6,0C125.6,55.7,125.6,54.9,125.7,54.1z"/>
	<path class="st6" d="M128.3,57c0,0.2-0.1,0.3-0.2,0.5s-0.3,0.2-0.4,0.2c-0.3,0-0.4-0.1-0.4-0.4c0-0.2,0.1-0.3,0.2-0.5
		s0.3-0.2,0.4-0.2C128.2,56.6,128.3,56.7,128.3,57z"/>
	<path class="st6" d="M132.9,55.2c0,0.7-0.2,1.3-0.5,1.8s-0.8,0.8-1.4,0.8c-0.5,0-0.9-0.2-1.1-0.5s-0.3-0.7-0.3-1.2
		c0-0.7,0.2-1.3,0.5-1.8s0.8-0.8,1.4-0.8c0.5,0,0.9,0.2,1.1,0.5S132.9,54.8,132.9,55.2z M132.3,55.3c0-0.4-0.1-0.7-0.2-0.9
		s-0.4-0.4-0.7-0.4c-0.3,0-0.6,0.2-0.8,0.6s-0.3,0.8-0.3,1.4c0,0.4,0.1,0.7,0.2,1s0.4,0.3,0.7,0.3c0.3,0,0.6-0.2,0.8-0.5
		S132.3,55.9,132.3,55.3z"/>
</g>
<g id="g13250">
	<g id="text13254" transform="matrix(0.99992329,0,0,-1,29.03885,214.04535)">
		<path id="path14785" d="M457.2-43.6L449-55l8.2,32.3l8.2-32.3L457.2-43.6z M457.2-25.8v-16.3l6-8.4L457.2-25.8z M454-10.6h1.3
			l4.2-7.3v7.3h1.1v-9.5h-1.1l-4.4,7.7v-7.7h-1L454-10.6L454-10.6z"/>
	</g>
</g>

</svg>
